<?xml version="1.0" standalone="no"?>
<!DOCTYPE svg PUBLIC "-//W3C//DTD SVG 20010904//EN"
 "http://www.w3.org/TR/2001/REC-SVG-20010904/DTD/svg10.dtd">
<svg version="1.0" xmlns="http://www.w3.org/2000/svg"
 width="300.000000pt" height="300.000000pt" viewBox="0 0 300.000000 300.000000"
 preserveAspectRatio="xMidYMid meet">
<metadata>
Created by potrace 1.10, written by Peter Selinger 2001-2011
</metadata>
<g transform="translate(0.000000,300.000000) scale(0.100000,-0.100000)"
fill="#000000" stroke="none">
<path d="M1484 2865 c-6 -15 12 -45 27 -45 16 0 38 31 33 45 -8 20 -53 19 -60
0z m46 -10 c0 -8 -9 -15 -20 -15 -20 0 -26 11 -13 23 12 13 33 7 33 -8z"/>
<path d="M1235 2859 c3 -9 -1 -22 -10 -29 -12 -10 -15 -34 -15 -114 1 -91 2
-99 15 -82 17 22 20 92 5 101 -15 9 -12 56 5 89 11 21 13 32 5 40 -8 8 -9 7
-5 -5z"/>
<path d="M1833 2833 c-8 -16 -13 -68 -13 -126 0 -81 3 -102 16 -112 15 -10 13
-15 -14 -43 -19 -20 -29 -38 -25 -50 2 -10 -3 -24 -11 -31 -9 -8 -16 -25 -16
-40 -1 -22 -2 -24 -11 -9 -7 12 -6 24 1 39 9 15 8 24 -1 35 -10 12 -8 18 9 30
12 8 22 22 22 30 0 8 5 14 10 14 6 0 10 35 10 85 0 50 -4 85 -10 85 -6 0 -10
-33 -11 -77 -1 -78 -1 -78 -40 -112 -46 -39 -53 -28 -9 15 27 27 29 34 30 103
0 74 0 74 -20 56 -13 -12 -17 -22 -11 -28 6 -6 6 -19 1 -33 -5 -13 -7 -30 -5
-37 3 -7 -22 -39 -55 -72 -33 -33 -60 -55 -60 -49 0 6 9 21 19 33 10 12 17 30
14 40 -4 17 -8 17 -30 6 -25 -13 -25 -15 -24 -122 1 -59 -3 -121 -8 -138 -7
-22 -10 15 -10 128 -1 98 3 156 9 152 5 -3 20 -3 34 1 33 8 56 78 34 100 -11
12 -13 7 -10 -26 4 -36 2 -40 -24 -45 -16 -4 -34 -8 -41 -10 -7 -3 -14 10 -16
33 -2 20 -3 11 -2 -20 3 -58 -8 -77 -20 -37 -12 36 4 203 21 212 8 4 14 14 14
22 0 9 -10 4 -27 -13 -27 -26 -27 -30 -24 -127 1 -55 7 -104 12 -109 5 -6 8
-55 7 -110 l-2 -101 -5 85 c-8 110 -21 80 -21 -46 0 -134 -19 -122 -22 14 -2
94 -2 98 -5 30 -6 -124 -25 -96 -22 32 2 91 0 113 -14 128 -9 10 -17 31 -17
45 0 20 -5 27 -20 27 -25 0 -26 -17 -2 -23 12 -3 13 -5 2 -6 -17 -1 -45 -40
-36 -49 3 -3 20 -5 36 -5 l30 0 0 -149 c0 -92 -4 -148 -10 -148 -6 0 -10 51
-10 133 l0 132 -26 12 c-22 10 -25 10 -20 -3 3 -9 -1 -14 -11 -14 -14 0 -13
-4 5 -23 45 -47 20 -41 -33 8 -37 35 -55 59 -55 76 0 32 -19 99 -28 99 -4 0
-6 -32 -4 -72 4 -62 8 -74 31 -94 14 -12 22 -26 18 -30 -5 -5 -27 11 -50 36
-45 47 -53 43 -45 -25 2 -19 0 -31 -4 -29 -4 3 -8 0 -8 -5 0 -25 -27 -8 -38
23 -10 27 -17 33 -32 29 -14 -4 -20 0 -20 11 0 12 6 15 25 10 19 -5 25 -2 25
11 0 11 -6 15 -19 10 -28 -9 -35 32 -11 71 11 17 20 35 20 40 0 5 -9 -6 -20
-23 -11 -18 -23 -33 -27 -33 -5 0 -7 -98 -5 -217 3 -206 4 -219 24 -240 12
-13 18 -26 14 -30 -3 -4 -29 15 -56 42 l-50 49 0 68 c0 38 4 68 10 68 6 0 9
-26 7 -61 -1 -36 2 -63 8 -66 7 -2 9 22 7 69 -4 71 -5 74 -47 115 -23 23 -45
53 -47 67 -3 14 -2 23 2 21 4 -2 5 7 2 22 -4 19 -1 24 9 21 8 -3 13 -13 12
-23 -1 -12 2 -14 9 -7 15 15 -11 46 -41 50 -23 2 -23 0 -19 -58 2 -33 0 -60
-5 -60 -11 0 -46 -41 -47 -55 0 -5 5 -3 10 5 9 13 10 13 10 0 0 -13 1 -13 10
0 9 13 10 13 11 0 0 -10 3 -8 9 5 5 11 9 15 9 8 1 -7 8 -10 16 -7 11 5 15 -1
15 -24 0 -30 -27 -53 -39 -34 -3 5 -15 8 -26 6 -22 -3 -47 14 -39 27 3 5 -2
16 -10 25 -21 20 -20 34 2 34 12 0 8 6 -13 19 -52 32 -61 9 -15 -42 16 -19 27
-37 23 -40 -3 -4 0 -13 6 -21 18 -22 3 -39 -27 -31 l-26 6 19 -22 20 -22 -22
12 c-13 6 -27 20 -33 31 -6 12 -16 17 -26 13 -13 -5 -10 -11 15 -35 21 -20 31
-38 31 -59 0 -17 7 -37 15 -45 8 -9 15 -26 15 -38 0 -35 20 -47 61 -36 41 12
49 12 49 2 0 -8 -53 -30 -92 -37 -13 -3 -25 -10 -26 -15 -3 -7 -10 -6 -20 2
-12 10 -14 10 -8 1 4 -8 1 -13 -8 -13 -9 0 -16 -7 -16 -15 0 -8 -6 -15 -14
-15 -7 0 -19 -7 -26 -15 -15 -18 -33 -20 -27 -2 2 6 -4 21 -15 33 -15 17 -17
26 -8 49 12 33 19 29 22 -11 3 -47 38 -78 38 -33 0 11 4 17 10 14 13 -8 13 1
-2 24 -9 15 -9 23 1 35 17 20 31 21 31 1 0 -9 -6 -12 -17 -8 -15 5 -14 3 2
-10 11 -8 22 -11 25 -7 3 5 12 5 20 0 25 -16 34 -11 17 8 -10 10 -17 27 -17
36 0 10 -9 29 -20 43 -11 15 -18 34 -15 47 3 15 -8 35 -40 70 -25 27 -48 46
-51 43 -4 -3 6 -18 20 -32 29 -29 34 -50 10 -41 -10 4 -13 2 -8 -6 11 -18 4
-112 -9 -120 -7 -4 -51 -7 -99 -6 l-88 1 0 48 c0 27 -4 49 -10 49 -12 0 -14
37 -2 43 4 2 37 1 75 -2 63 -6 67 -5 67 14 0 12 -14 31 -31 44 -27 20 -30 27
-25 55 l6 31 -16 -23 c-12 -18 -23 -23 -45 -20 -16 3 -29 1 -29 -4 0 -4 16 -8
35 -8 38 0 44 -10 20 -30 -12 -10 -21 -10 -40 -2 -14 7 -25 16 -25 22 0 5 -5
10 -11 10 -5 0 -8 -4 -5 -9 3 -5 -2 -12 -12 -16 -16 -6 -16 -7 -1 -18 9 -7 15
-23 14 -37 -1 -14 -3 -25 -4 -25 -1 0 -3 -29 -4 -65 -2 -62 0 -66 31 -94 20
-18 32 -38 33 -55 0 -17 3 -21 7 -11 8 18 32 25 32 9 0 -8 4 -8 14 0 11 9 15
9 19 -1 3 -8 6 -6 6 5 2 35 31 -8 31 -45 0 -27 -4 -34 -20 -35 -11 -1 -20 3
-20 8 0 6 -4 8 -9 4 -5 -3 -12 5 -14 17 l-4 23 -2 -22 c0 -13 -8 -23 -16 -23
-9 0 -15 10 -16 23 -1 21 -1 21 -9 -3 -6 -20 -1 -31 23 -55 19 -20 31 -26 34
-17 3 6 9 10 14 7 12 -8 -46 -108 -69 -118 -10 -5 -26 -21 -35 -37 -19 -31
-78 -57 -99 -43 -9 5 1 10 27 14 l40 6 -37 2 c-21 0 -38 5 -38 10 0 6 17 12
38 14 l37 4 -37 1 c-45 2 -52 22 -8 22 17 0 30 5 30 10 0 6 19 10 41 10 32 0
39 3 31 13 -15 18 -23 79 -9 70 7 -4 20 -9 30 -10 16 -3 15 1 -7 28 -21 24
-26 41 -26 83 0 47 -4 58 -34 89 -30 32 -35 34 -49 20 -13 -14 -11 -19 25 -54
22 -21 37 -43 33 -49 -3 -5 -23 -10 -44 -10 -35 0 -46 8 -109 71 -66 66 -92
78 -92 44 0 -7 20 -30 44 -50 65 -53 64 -61 -2 -64 -32 -1 -69 -4 -83 -7 -21
-4 -28 -1 -32 15 -7 27 -29 27 -45 0 -23 -36 25 -68 56 -37 9 9 12 9 12 0 0
-6 7 -9 15 -6 9 4 71 3 140 -1 95 -5 125 -10 129 -22 5 -12 -19 -14 -169 -11
-96 2 -175 0 -175 -4 0 -8 22 -11 80 -9 32 1 111 -16 83 -18 -9 -1 -10 -8 -3
-26 8 -20 6 -29 -11 -46 l-21 -21 53 -54 c52 -52 53 -53 118 -56 40 -2 64 -7
61 -13 -3 -6 -59 -10 -137 -10 -73 0 -135 -4 -139 -8 -4 -4 11 -7 34 -7 22 0
44 -5 48 -11 4 -7 27 -10 60 -7 47 4 57 1 76 -19 l21 -23 -81 0 c-78 0 -82 1
-83 23 -1 17 -2 18 -6 4 -4 -15 -14 -18 -68 -16 -46 2 -66 6 -70 17 -3 8 -8
12 -12 9 -3 -4 0 -13 7 -22 8 -10 31 -15 71 -15 32 0 61 -4 64 -10 3 -6 52
-10 111 -10 57 0 104 -4 104 -9 0 -15 -162 -24 -283 -16 -86 5 -114 11 -123
23 -7 10 -15 14 -18 11 -3 -3 5 -19 17 -36 20 -29 27 -32 101 -38 61 -6 75
-10 61 -17 -10 -6 -49 -8 -96 -4 l-78 7 -16 -30 c-8 -17 -22 -31 -30 -31 -8 0
-15 -4 -15 -10 0 -18 11 -11 46 27 30 33 37 36 54 25 11 -6 33 -12 49 -12 26
0 29 -3 27 -30 -3 -37 -8 -43 -46 -44 -16 -1 -29 -5 -27 -11 1 -5 21 -9 44 -8
24 2 43 -1 43 -7 0 -5 42 -7 103 -4 111 4 190 -3 181 -17 -3 -5 -34 -9 -70 -9
-59 0 -65 -2 -60 -18 4 -11 -1 -25 -12 -36 -17 -14 -37 -16 -148 -12 -71 3
-135 2 -141 -2 -32 -20 -73 -87 -73 -119 l0 -35 74 4 c41 2 72 0 70 -4 -3 -5
-20 -8 -37 -9 -18 0 -50 -4 -72 -9 -34 -7 -30 -8 28 -5 45 2 74 8 86 19 24 21
47 20 64 -4 12 -17 27 -20 132 -22 88 -2 120 -6 123 -16 3 -11 -20 -13 -122
-11 -69 2 -128 0 -132 -4 -4 -4 18 -7 49 -7 31 0 59 -4 62 -10 8 -13 72 -13
80 0 3 6 13 10 21 10 9 0 12 -5 8 -11 -5 -9 1 -10 22 -5 l29 8 -29 -31 c-26
-27 -36 -31 -85 -31 -33 1 -64 7 -75 15 -28 21 -191 21 -199 1 -3 -8 -18 -16
-34 -18 -20 -2 -24 -5 -12 -10 9 -3 29 0 45 8 36 19 180 16 176 -3 -1 -8 9
-13 28 -13 16 0 33 -6 37 -14 4 -8 17 -16 28 -19 11 -2 7 -3 -8 -2 -28 2 -28
1 -26 -48 l3 -50 -94 2 c-52 1 -97 4 -101 7 -13 8 -33 -57 -23 -74 14 -21 31
-24 172 -29 l124 -5 53 57 c44 48 57 56 81 53 l29 -4 -25 -11 c-14 -6 -45 -32
-69 -57 l-44 -46 49 0 c60 1 105 30 84 55 -19 23 -6 28 14 6 17 -19 16 -21
-10 -50 l-27 -31 -146 -1 c-129 -2 -138 -3 -81 -10 157 -21 227 -16 265 19 24
22 40 27 83 28 29 0 58 6 64 12 7 7 24 12 39 12 15 0 41 12 58 26 47 39 67 30
63 -31 -4 -61 -13 -72 -47 -57 -21 10 -33 9 -62 -3 -19 -8 -45 -15 -57 -15
-12 0 -35 -17 -53 -40 -42 -49 -43 -66 -2 -21 16 18 33 31 36 27 3 -3 -2 -15
-12 -26 -10 -11 -13 -20 -7 -20 6 0 16 9 22 20 7 13 21 20 39 20 15 0 36 9 46
20 24 27 35 25 35 -4 0 -35 -56 -76 -106 -77 l-39 -2 40 -6 c37 -6 38 -7 15
-15 -25 -8 -25 -9 -2 -13 12 -2 22 -9 22 -14 0 -5 -10 -9 -22 -10 -22 -1 -22
-1 2 -9 25 -8 25 -8 2 -9 -13 -1 -20 -5 -17 -11 4 -6 -16 -10 -52 -10 -41 0
-54 3 -43 10 13 8 13 10 -2 10 -20 0 -32 -16 -18 -25 6 -4 8 -11 5 -16 -4 -5
26 -9 70 -9 l77 0 74 72 c69 68 74 75 74 115 0 24 5 43 10 43 6 0 10 -20 10
-45 0 -43 -4 -50 -76 -125 l-77 -80 -158 0 -159 0 0 -24 c0 -27 -17 -44 -48
-49 -32 -5 -39 -17 -11 -17 30 0 69 33 69 58 0 14 10 18 60 19 33 0 63 -3 66
-8 3 -5 21 -9 40 -9 19 0 34 -5 34 -11 0 -7 -25 -10 -77 -8 -55 3 -77 0 -80
-8 -3 -9 7 -13 29 -14 26 0 29 -2 14 -8 -14 -5 -16 -10 -7 -15 9 -6 9 -11 0
-22 -9 -10 -9 -14 0 -14 6 0 14 6 17 14 10 25 55 49 67 37 7 -7 60 -11 138
-11 126 0 139 3 145 35 1 6 5 18 9 28 8 18 -9 24 -20 7 -9 -14 -28 -12 -22 3
3 6 8 20 12 30 4 10 3 17 -4 17 -6 0 -15 -10 -20 -22 -11 -28 -68 -84 -77 -75
-4 4 -1 14 6 23 8 8 14 24 15 34 2 21 38 71 85 117 42 41 57 117 35 171 -18
41 -18 42 -4 42 6 0 20 -11 31 -26 11 -14 23 -22 26 -19 3 3 -12 23 -33 45
-51 52 -37 65 15 14 l40 -39 0 -143 c0 -105 3 -141 11 -136 9 5 10 58 6 190
-3 106 -1 184 4 184 5 0 9 -86 9 -193 l0 -193 -64 -62 c-37 -37 -72 -62 -85
-62 -18 0 -21 -6 -21 -40 l0 -40 -99 0 c-55 0 -106 3 -115 6 -11 4 -16 19 -16
45 0 21 -4 39 -10 39 -5 0 -11 -3 -11 -7 -7 -38 -5 -62 6 -82 11 -23 16 -24
113 -22 78 2 102 -1 102 -11 0 -10 -23 -12 -100 -10 -92 4 -100 2 -93 -14 5
-14 2 -16 -15 -12 -13 4 -19 2 -16 -6 3 -9 36 -11 116 -9 l111 3 66 61 c57 52
64 62 48 70 -32 18 -15 50 56 103 l37 28 0 -26 c0 -14 5 -26 10 -26 6 0 10 97
10 270 0 173 4 270 10 270 6 0 10 -100 10 -279 l0 -279 -117 -106 -118 -105
-122 -1 c-77 0 -123 -4 -123 -10 0 -6 10 -8 24 -4 33 8 69 -4 62 -21 -4 -11 0
-12 20 -5 14 6 48 10 75 10 47 0 53 3 137 77 134 118 126 112 119 83 -6 -24
-5 -23 19 5 55 66 52 42 57 470 l4 400 -24 35 c-25 37 -28 50 -13 50 5 0 21
-20 35 -43 l25 -44 0 -403 0 -403 -52 -50 c-29 -27 -63 -59 -75 -70 -22 -20
-22 -21 -2 -35 11 -7 16 -18 12 -25 -10 -17 -11 -47 -1 -47 15 0 8 -39 -9 -49
-24 -14 -7 -14 18 -1 10 6 19 17 19 25 0 8 5 15 10 15 18 0 80 -29 80 -37 0
-12 187 -15 195 -3 3 5 17 10 29 10 23 0 24 3 29 123 4 67 6 172 6 232 0 148
0 147 10 140 6 -3 13 -26 17 -50 12 -85 19 -53 16 73 -3 110 -7 130 -24 148
-13 15 -18 32 -16 55 4 43 21 40 28 -3 3 -18 13 -45 23 -60 17 -25 18 -48 15
-292 -3 -234 -5 -266 -20 -283 -10 -11 -18 -32 -18 -47 0 -16 -4 -25 -10 -21
-5 3 -10 -3 -10 -14 0 -28 28 -27 34 2 3 12 7 34 10 49 3 15 13 33 21 42 13
12 15 62 15 320 0 238 3 306 13 306 9 0 11 -75 9 -351 -2 -222 1 -355 7 -363
6 -7 6 -17 1 -26 -8 -13 -13 -13 -32 -1 -22 13 -22 12 -6 -5 15 -15 21 -16 43
-6 14 7 36 12 48 12 13 0 28 5 34 11 8 8 33 6 89 -5 82 -16 163 -14 174 5 4 6
10 10 14 10 17 -3 86 64 91 90 5 20 13 29 26 29 20 0 26 24 9 35 -5 3 -10 10
-10 16 0 22 30 4 102 -64 l77 -72 72 -3 c47 -2 75 1 79 9 4 6 23 15 41 19 23
5 -4 8 -89 9 l-123 1 -101 90 c-153 138 -139 95 -136 404 2 169 7 266 13 266
6 0 11 -96 13 -263 l2 -263 43 -40 42 -39 -37 40 c-36 39 -53 95 -28 95 17 0
163 -147 156 -158 -9 -15 -47 -11 -71 7 -11 8 9 -15 45 -52 l66 -67 111 -3
c96 -1 114 1 131 17 12 10 18 24 15 32 -3 8 0 21 7 29 7 9 9 26 5 46 -7 30 -6
31 23 24 19 -4 33 -2 38 6 5 9 2 10 -10 6 -18 -7 -32 15 -21 33 5 8 11 8 20 0
9 -7 16 -6 25 5 7 8 17 12 24 9 6 -4 -2 5 -18 18 -33 27 -28 48 10 48 13 0 24
3 24 8 0 4 -70 6 -156 4 l-156 -3 -39 41 c-21 22 -46 40 -55 40 -10 0 -15 3
-11 6 3 4 -5 21 -18 39 -19 24 -25 44 -25 83 0 29 5 52 10 52 6 0 10 -21 10
-48 0 -46 3 -50 73 -120 l72 -72 82 0 82 0 7 38 c8 44 22 65 41 58 10 -4 12 1
7 19 -4 18 -1 27 10 31 9 3 16 13 16 21 0 12 10 14 44 12 35 -3 42 -1 34 9 -7
8 -26 10 -57 6 -42 -5 -49 -2 -79 25 -33 30 -52 39 -52 23 0 -5 14 -21 30 -37
17 -16 30 -33 30 -39 0 -5 -15 4 -32 21 -18 17 -43 36 -55 42 -36 18 -29 -9
12 -49 20 -19 33 -40 31 -46 -3 -7 2 -15 10 -18 8 -3 14 -13 14 -21 0 -9 -4
-14 -9 -10 -5 3 -11 -7 -13 -22 -3 -27 -6 -28 -61 -31 -39 -2 -57 0 -52 7 3 7
-3 11 -17 12 -22 0 -22 1 -3 9 19 8 19 9 -2 9 -13 1 -23 5 -23 10 0 5 10 11
23 14 22 4 22 4 -3 15 -25 11 -24 11 10 13 l35 1 -37 7 c-49 10 -86 36 -94 67
-9 35 2 41 29 16 13 -12 35 -22 49 -22 14 0 33 -9 43 -20 27 -29 40 -24 20 8
l-18 27 30 -27 c45 -43 52 -33 8 12 -24 25 -48 40 -63 40 -13 0 -37 8 -53 17
-24 15 -32 15 -54 3 -24 -13 -46 -8 -84 17 -2 1 1 9 7 16 6 7 13 28 14 46 2
30 5 32 34 29 18 -2 30 0 28 4 -3 4 1 5 9 2 8 -3 14 -13 13 -22 0 -10 11 -20
29 -25 17 -6 44 -16 62 -23 57 -25 110 -14 144 28 9 12 22 19 29 16 11 -3 10
-7 -2 -18 -13 -13 -13 -16 8 -32 22 -18 104 -26 104 -10 0 4 -27 29 -60 57
-49 41 -56 51 -42 59 12 7 27 -3 68 -47 29 -32 56 -57 61 -57 4 0 -11 18 -32
40 -29 30 -36 43 -28 51 9 9 21 6 47 -11 28 -17 35 -18 30 -6 -10 27 13 18 35
-13 27 -38 27 -49 -1 -25 l-23 19 19 -22 c16 -19 29 -23 83 -23 35 0 72 -5 82
-12 15 -9 24 -8 45 5 14 9 34 17 45 17 11 0 23 4 26 10 3 6 -1 7 -10 4 -13 -5
-15 5 -11 77 2 46 1 60 -1 31 l-4 -52 -103 0 c-86 0 -105 -3 -110 -16 -5 -14
-9 -14 -22 -3 -14 12 -13 14 6 21 17 6 21 14 16 31 -3 12 -6 34 -6 50 0 20 -5
27 -20 27 -11 0 -20 4 -20 9 0 12 27 22 43 15 8 -3 20 2 27 11 10 12 34 15
111 15 59 0 99 4 99 10 0 6 -40 10 -99 10 -75 0 -101 -4 -111 -15 -8 -10 -31
-15 -68 -15 -46 0 -59 4 -78 25 -26 28 -11 35 18 8 10 -9 18 -11 18 -5 0 6 -4
14 -10 17 -27 17 0 23 107 24 65 1 122 6 126 10 5 5 4 18 -2 30 -8 15 -9 21
-1 21 6 0 8 4 5 10 -4 7 3 7 19 0 18 -6 26 -6 26 1 0 6 7 8 16 5 8 -3 13 -2
10 3 -3 5 0 14 8 20 10 8 17 6 31 -9 26 -29 55 -26 55 4 0 14 -4 28 -10 31 -6
4 -5 13 2 25 11 16 8 24 -17 50 l-30 32 -130 -6 c-110 -5 -132 -3 -147 11 -10
9 -18 24 -18 35 0 16 -8 18 -65 18 -61 0 -65 1 -80 30 -18 35 -19 79 -3 131
12 42 18 45 49 28 20 -10 20 -11 3 -31 -18 -19 -18 -19 59 -17 75 3 111 19 42
19 -19 0 -35 5 -35 10 0 6 23 10 50 10 47 0 66 -12 38 -23 -7 -3 -3 -6 10 -6
20 -1 22 -6 22 -51 l0 -50 -40 0 c-30 0 -40 4 -40 16 0 13 -11 15 -67 11 -62
-4 -66 -6 -69 -30 l-3 -26 87 5 c48 3 104 6 125 8 20 2 37 0 37 -5 0 -12 47
-11 55 1 3 6 24 10 45 10 21 0 42 4 45 10 3 6 -1 7 -9 4 -13 -5 -15 0 -10 25
9 43 -20 42 -36 -1 -11 -33 -11 -33 -28 -12 -9 11 -20 20 -24 20 -16 -2 -19
14 -4 20 9 3 13 10 10 15 -3 5 11 9 30 9 20 0 36 4 36 9 0 6 15 12 33 14 17 2
-14 5 -70 5 -96 2 -103 3 -103 22 0 18 7 20 79 20 70 0 83 3 108 24 15 13 25
27 21 31 -3 4 -15 -2 -26 -13 -16 -16 -39 -20 -148 -25 -122 -6 -270 0 -259
11 3 3 1 10 -4 16 -4 6 -11 24 -15 39 -6 24 -4 28 11 25 14 -3 17 -12 15 -36
l-2 -32 105 0 c63 0 105 4 105 10 0 6 30 10 70 10 39 0 70 3 70 8 0 4 14 22
31 40 21 23 38 32 51 29 12 -4 18 -1 15 6 -8 26 -36 16 -78 -28 -42 -43 -46
-45 -101 -45 -36 0 -58 5 -61 13 -3 7 -6 5 -6 -5 -1 -16 -12 -18 -82 -18 -76
0 -81 1 -68 18 22 27 28 29 78 24 30 -2 51 0 55 7 4 6 27 11 51 11 43 0 49 4
130 85 82 83 102 106 55 65 -13 -11 -29 -20 -37 -20 -7 0 -13 -4 -13 -9 0 -4
-21 -30 -47 -56 l-47 -48 -153 -4 c-127 -3 -153 -1 -153 11 0 7 6 14 13 13 6
0 39 1 73 1 l61 2 -5 28 c-3 24 3 34 37 61 33 27 42 30 47 17 3 -8 2 -21 -2
-28 -4 -7 1 -5 11 4 21 20 14 48 -15 55 -28 8 -25 17 17 52 29 24 47 31 81 31
74 0 128 47 101 89 -8 13 -9 12 -4 -5 3 -13 -2 -30 -14 -45 -19 -23 -23 -24
-187 -26 -92 -1 -175 -5 -183 -8 -10 -4 -7 3 7 18 12 13 22 28 22 34 0 5 18
15 40 22 26 8 57 30 87 62 71 75 65 83 -8 13 -52 -50 -72 -63 -106 -68 -51 -7
-56 5 -16 46 15 16 21 28 14 28 -7 0 -11 6 -8 15 11 28 -12 25 -32 -4 -15 -21
-21 -44 -21 -86 0 -47 -4 -60 -25 -79 -32 -29 -32 -40 0 -34 22 5 24 3 18 -21
-3 -14 -10 -32 -16 -38 -7 -10 1 -13 37 -13 25 0 46 -4 46 -10 0 -5 14 -10 30
-10 17 0 30 -5 30 -11 0 -7 -11 -9 -30 -6 -16 4 -32 2 -35 -3 -4 -6 9 -10 29
-10 20 0 36 -5 36 -11 0 -7 -12 -9 -30 -7 -17 3 -33 1 -36 -4 -3 -4 11 -8 31
-8 23 0 34 -4 29 -11 -3 -6 -17 -8 -33 -4 -14 4 -33 8 -41 9 -8 2 -21 17 -30
34 -8 17 -27 38 -42 46 -14 9 -38 37 -52 63 -27 47 -28 65 -2 44 21 -18 66 27
65 65 -1 24 -3 25 -6 7 -2 -13 -9 -23 -14 -23 -5 0 -9 10 -10 23 -1 21 -1 21
-9 -3 l-8 -25 -1 24 c-1 22 -14 22 -17 0 -4 -30 -7 -31 -14 -4 -6 23 -8 25 -9
8 -2 -43 -21 -35 -21 10 0 42 1 43 33 44 17 0 35 -5 39 -11 5 -8 8 -7 8 2 0
19 20 14 21 -5 1 -17 6 -2 28 82 12 47 14 132 4 138 -5 3 -8 -23 -8 -56 l0
-62 -100 0 -99 0 3 51 c2 39 -1 53 -13 57 -25 10 -19 29 20 70 25 26 34 43 29
56 -4 13 4 29 25 51 16 17 30 36 30 42 0 6 -16 -6 -36 -27 -25 -27 -34 -45
-31 -61 3 -17 -8 -35 -45 -70 -40 -40 -48 -54 -48 -85 0 -20 -7 -42 -15 -49
-8 -7 -15 -21 -15 -31 0 -10 -10 -27 -22 -39 -26 -24 -38 -18 -15 8 10 10 17
30 17 44 0 14 7 31 16 39 10 8 13 21 9 37 -4 18 2 31 30 56 19 18 35 35 35 39
0 16 -26 5 -57 -25 -18 -18 -33 -26 -33 -20 0 7 9 20 19 29 19 15 19 17 3 30
-16 12 -16 14 3 29 11 8 30 13 43 11 14 -3 26 1 29 9 3 8 12 14 21 14 13 0 12
3 -4 21 l-18 20 -8 -21 c-10 -27 -30 -21 -39 11 l-7 24 -1 -26 c-1 -30 -85
-111 -100 -96 -6 6 -16 5 -26 -1 -37 -20 -64 3 -49 42 7 20 74 22 74 4 0 -9 4
-8 11 2 8 12 12 12 16 2 4 -10 11 -8 29 9 27 25 33 69 9 69 -8 0 -15 -7 -15
-15 0 -8 -4 -15 -9 -15 -5 0 -15 -2 -23 -5 -22 -9 -43 51 -29 82 8 18 9 29 1
37 -7 7 -10 5 -10 -7 0 -9 -4 -17 -10 -17 -5 0 -10 -6 -10 -14 0 -7 -7 -19
-15 -26 -8 -7 -15 -20 -15 -29 0 -9 -20 -37 -45 -61 -45 -44 -45 -45 -45 -112
0 -39 4 -68 10 -68 6 0 10 29 10 66 0 41 4 63 10 59 6 -3 10 -32 10 -63 0 -57
-1 -59 -55 -112 -54 -54 -92 -65 -42 -12 23 24 27 37 27 86 0 31 -4 55 -9 52
-5 -3 -11 0 -13 7 -4 10 -2 128 2 147 0 3 8 -4 17 -15 14 -18 15 -18 9 -2 -3
10 -6 30 -6 43 0 13 -4 24 -10 24 -5 0 -10 -9 -10 -19 0 -25 -15 -34 -28 -18
-13 16 -4 32 24 41 16 5 23 17 26 41 4 38 -7 45 -27 18 -11 -15 -15 -16 -30
-3 -10 8 -21 13 -24 10 -18 -15 -28 179 -10 197 6 6 9 18 7 27 -2 11 -7 8 -15
-11z m-688 -293 c10 -16 -16 -43 -28 -31 -11 11 -2 41 12 41 5 0 13 -5 16 -10z
m223 -37 c7 -7 11 -32 10 -60 l-1 -48 -7 45 -7 45 -1 -50 c-1 -28 3 -56 10
-63 9 -9 9 -12 0 -12 -7 0 -12 -16 -12 -42 -1 -34 -3 -39 -11 -26 -5 10 -9 32
-8 50 1 18 1 47 -1 63 -3 29 -3 28 -9 -7 -10 -59 -29 -33 -31 42 -1 36 -1 69
-1 73 1 12 54 4 69 -10z m313 -5 l2 -23 4 23 c5 24 5 24 27 16 22 -8 23 -126
1 -144 -13 -11 -15 -7 -15 24 0 20 -4 36 -9 36 -5 0 -9 -30 -9 -66 0 -39 -5
-70 -12 -77 -9 -9 -11 -3 -8 31 2 23 0 42 -4 42 -4 0 -5 17 -2 38 3 28 2 32
-5 17 -8 -16 -10 -10 -10 28 -1 44 12 76 32 77 4 0 8 -10 8 -22z m-467 -24
c22 -22 19 -84 -5 -84 -4 0 -5 7 -2 17 4 11 3 14 -5 9 -16 -10 -16 -188 0
-204 6 -6 8 -15 4 -19 -4 -4 -24 11 -45 33 -41 43 -61 84 -40 84 9 0 10 19 5
71 -5 60 -4 75 10 90 21 23 57 24 78 3z m676 -4 c6 -12 8 -45 4 -84 -4 -42 -3
-66 5 -70 6 -4 11 -14 11 -22 0 -20 -80 -105 -92 -98 -5 3 -3 13 6 23 22 24
23 183 2 200 -12 10 -13 8 -9 -10 4 -15 3 -20 -5 -15 -16 9 -15 69 0 84 19 19
66 15 78 -8z m-614 -110 c10 0 14 -13 15 -42 l2 -43 6 40 7 40 5 -31 c6 -39
-1 -58 -23 -62 -13 -2 -18 4 -18 21 0 26 -20 40 -45 31 -11 -5 -15 1 -15 21 0
19 4 26 14 22 8 -3 17 2 21 11 5 12 9 13 12 5 3 -7 11 -13 19 -13z m504 10 c0
-5 7 -10 15 -10 11 0 15 -12 15 -45 0 -25 -4 -45 -9 -45 -5 0 -9 14 -9 30 1
17 -2 33 -5 37 -4 3 -7 -11 -8 -33 l-1 -39 -13 45 -14 45 2 -44 c1 -28 -3 -46
-11 -49 -6 -2 -12 4 -12 13 0 9 -4 13 -10 10 -5 -3 -10 1 -10 9 0 10 6 13 18
10 15 -5 15 -4 -2 10 -17 14 -17 16 -3 30 9 9 20 16 26 16 6 0 11 5 11 10 0 6
5 10 10 10 6 0 10 -4 10 -10z m-772 -92 l3 -88 -27 0 c-23 0 -25 3 -19 23 4
12 8 40 9 62 1 36 -1 40 -24 40 -21 0 -26 -5 -28 -34 -2 -18 1 -38 7 -44 6 -6
11 -19 11 -30 0 -14 -5 -17 -22 -12 -13 4 -26 10 -31 14 -6 6 -12 124 -8 154
0 4 29 7 64 5 l62 -3 3 -87z m1140 15 c-3 -72 -5 -78 -30 -92 -36 -21 -45 -8
-24 32 25 46 18 81 -16 85 -25 3 -28 0 -29 -30 -1 -18 0 -37 1 -43 13 -49 12
-55 -8 -55 -11 0 -23 8 -25 18 -4 13 -2 149 2 160 1 1 30 2 66 2 l66 0 -3 -77z
m-1180 0 c-5 -25 -28 -28 -28 -4 0 12 6 21 16 21 9 0 14 -7 12 -17z m482 -83
c0 -44 -4 -60 -14 -60 -7 0 -19 -7 -27 -16 -10 -12 -10 -20 -1 -35 19 -29 14
-189 -6 -212 -14 -16 -16 -16 -34 -1 -16 15 -18 35 -18 179 0 118 3 165 13
172 11 10 63 31 80 32 4 1 7 -26 7 -59z m122 -27 c3 -73 0 -88 -14 -97 -15 -9
-18 -26 -18 -112 0 -78 3 -104 15 -114 32 -26 2 -100 -40 -100 -42 0 -72 74
-40 100 12 10 15 36 15 115 0 86 -3 105 -18 116 -15 12 -17 27 -14 97 l4 82
53 0 54 0 3 -87z m99 32 c4 -17 7 -91 8 -165 0 -115 -2 -138 -17 -158 -18 -23
-18 -23 -36 -3 -15 17 -17 32 -12 113 3 51 6 102 8 113 2 13 -5 23 -19 30 -20
8 -23 17 -23 67 l0 57 42 -13 c35 -10 44 -17 49 -41z m-335 -17 c-3 -18 -6
-93 -7 -166 -1 -123 1 -135 20 -156 18 -19 21 -35 21 -100 0 -73 -1 -77 -20
-72 -11 3 -29 8 -39 11 -12 4 -22 19 -26 38 -4 18 -16 42 -27 54 -15 16 -19
29 -13 50 l7 28 24 -28 c13 -15 24 -39 24 -53 0 -13 4 -24 8 -24 15 0 0 69
-19 86 -23 21 -24 51 -3 75 21 24 11 53 -16 46 -18 -5 -20 0 -20 47 0 73 25
151 57 175 34 27 35 27 29 -11z m389 6 c30 -32 42 -72 47 -151 4 -59 3 -63
-18 -63 -31 0 -40 -31 -15 -52 26 -20 26 -38 1 -71 -12 -15 -19 -38 -19 -59 2
-33 2 -33 6 -3 3 16 13 40 24 53 l18 24 12 -25 c9 -21 7 -28 -15 -50 -16 -16
-26 -37 -26 -56 0 -21 -6 -31 -20 -35 -66 -19 -60 -26 -60 68 0 68 3 87 16 94
13 7 17 33 19 143 2 74 0 151 -5 172 -9 44 1 48 35 11z m-670 -25 c0 -8 -10
-15 -22 -15 -26 -1 -29 6 -11 24 15 15 33 10 33 -9z m956 -12 c-5 -5 -21 -7
-37 -5 -26 3 -27 4 -10 20 14 14 20 15 36 6 11 -7 16 -16 11 -21z m-757 -23
c-13 -31 -15 -59 -11 -144 7 -115 10 -105 -70 -199 l-23 -26 6 35 c4 19 12 44
19 56 10 15 11 32 5 60 -5 21 -10 64 -10 94 -1 48 -3 52 -12 30 -6 -14 -8 -58
-4 -102 3 -45 1 -80 -4 -83 -6 -3 -11 -48 -11 -98 -2 -86 -2 -89 -9 -37 -5 30
-8 79 -9 108 -1 29 -8 66 -16 81 -17 34 -5 85 36 146 28 43 117 130 125 122 2
-2 -3 -21 -12 -43z m557 9 c53 -48 94 -108 110 -161 11 -37 10 -47 -4 -78 -12
-25 -17 -62 -17 -136 0 -56 -2 -99 -5 -96 -6 6 -15 140 -18 275 -2 100 -17
161 -17 69 0 -26 -5 -67 -11 -92 -10 -37 -9 -48 5 -69 9 -13 16 -37 16 -52 -1
-28 -1 -28 -40 17 -51 58 -67 96 -52 121 20 32 15 159 -8 202 -25 47 -11 47
41 0z m322 3 c4 -10 -4 -10 -33 -2 -22 5 -37 13 -35 16 7 11 63 -1 68 -14z
m200 -15 c3 -13 -6 -30 -29 -52 -19 -18 -34 -28 -34 -22 0 6 7 16 15 23 8 7
17 27 21 46 7 35 18 38 27 5z m98 17 c0 -10 2 -10 6 0 2 6 9 10 14 6 18 -10 9
-24 -16 -24 -16 0 -25 6 -25 15 0 18 20 20 21 3z m-183 -25 c-15 -15 -30 -25
-32 -22 -10 9 25 49 42 49 13 0 11 -6 -10 -27z m-1218 -13 c0 -5 -5 -10 -11
-10 -29 0 -239 -175 -239 -199 0 -5 -9 -13 -21 -16 -17 -6 -20 -13 -15 -35 4
-21 -1 -35 -19 -54 -16 -17 -27 -44 -31 -74 -3 -26 -14 -56 -24 -67 -10 -11
-20 -33 -22 -50 -2 -20 -9 -31 -22 -33 -17 -4 -18 1 -12 54 3 32 12 65 20 73
13 15 24 65 31 146 6 82 111 197 214 237 33 12 122 36 139 37 6 1 12 -3 12 -9z
m59 -35 c-29 -25 -67 -48 -86 -51 -18 -3 -33 -11 -33 -17 0 -5 -21 -30 -47
-54 -26 -23 -43 -43 -37 -43 6 0 32 21 58 47 46 45 126 92 126 74 0 -5 -7 -11
-15 -15 -8 -3 -14 -13 -13 -23 3 -38 -3 -49 -45 -75 -46 -30 -109 -86 -148
-134 -14 -17 -37 -34 -52 -38 -18 -4 -29 -15 -33 -34 -4 -15 -15 -38 -24 -52
-10 -14 -21 -35 -24 -47 -4 -13 -11 -23 -16 -23 -5 0 -16 -3 -26 -7 -14 -5
-16 -2 -10 21 4 16 15 40 26 55 10 14 21 47 25 73 3 26 12 49 20 52 8 3 15 12
15 21 0 8 12 20 26 25 22 9 25 15 22 40 -4 25 4 37 51 83 31 30 91 79 135 110
64 46 86 57 118 57 l40 0 -53 -45z m940 -3 c38 -26 100 -74 136 -106 56 -50
66 -63 62 -84 -6 -31 1 -52 17 -52 23 0 69 -65 73 -103 5 -49 20 -87 33 -87 5
0 10 -13 10 -30 0 -30 -6 -36 -26 -22 -15 9 -59 92 -77 145 -4 9 -16 17 -27
17 -13 0 -41 22 -72 56 -28 30 -80 76 -115 100 -36 27 -64 54 -64 65 -1 10 -2
25 -3 32 -1 6 -8 17 -16 24 -8 7 -12 13 -9 13 14 0 99 -42 99 -49 0 -5 20 -25
45 -45 25 -21 45 -35 45 -32 0 13 -99 106 -112 106 -14 0 -54 27 -118 79 l-25
21 37 0 c27 0 54 -12 107 -48z m71 26 c128 -38 257 -161 252 -240 -1 -16 2
-28 7 -28 5 0 12 -29 16 -65 3 -36 11 -65 16 -65 4 0 13 -15 18 -32 8 -28 9
-29 10 -9 1 14 -6 32 -14 41 -8 9 -16 43 -18 85 -4 76 -29 139 -75 188 -14 15
-21 27 -15 27 19 0 85 -82 111 -139 15 -33 26 -75 26 -102 1 -26 4 -45 8 -43
18 12 33 -141 18 -181 -19 -48 -13 -92 24 -169 57 -120 67 -146 64 -163 -3
-18 -68 -49 -68 -34 0 5 10 13 22 17 22 7 22 7 3 14 -14 5 -27 31 -44 86 -14
43 -26 74 -28 68 -2 -7 5 -36 17 -65 21 -57 26 -89 12 -89 -5 0 -14 22 -20 48
-7 26 -24 72 -38 102 -15 30 -30 68 -35 83 -14 48 21 29 43 -23 12 -29 17 -35
13 -16 -3 15 -8 41 -11 56 -4 17 2 42 15 68 12 23 20 56 20 74 -1 30 -2 29 -8
-10 -4 -23 -12 -47 -18 -53 -7 -7 -9 -3 -6 15 4 19 1 26 -10 26 -19 0 -37 29
-37 58 0 11 -6 22 -14 25 -8 3 -16 29 -20 65 -6 50 -11 62 -36 81 -24 17 -29
27 -24 46 5 20 -6 36 -65 97 -38 41 -102 94 -140 118 -38 25 -70 48 -70 52 -1
8 45 2 99 -14z m-636 -34 c13 -33 6 -190 -9 -210 -23 -30 -19 -77 10 -104 22
-21 25 -32 27 -104 1 -62 3 -68 5 -28 3 37 8 52 19 52 11 0 14 -17 15 -77 1
-43 4 -103 8 -133 4 -30 6 17 3 105 l-5 161 27 28 c29 33 33 66 11 100 -12 18
-15 47 -13 122 3 85 5 99 21 102 15 3 17 -7 17 -96 0 -86 3 -101 20 -117 16
-14 20 -31 20 -76 0 -55 -2 -61 -37 -93 l-38 -34 -3 -165 -3 -165 -44 1 -43 0
-4 164 -3 165 -37 34 c-36 32 -38 38 -38 93 0 45 4 62 20 76 17 16 20 31 20
117 0 77 3 98 14 98 8 0 17 -7 20 -16z m-763 -109 c-42 -48 -57 -88 -59 -163
-2 -40 -9 -73 -20 -90 -12 -19 -17 -46 -17 -100 1 -62 -1 -71 -12 -56 -19 27
-16 8 8 -37 l20 -40 -26 -91 c-14 -50 -24 -92 -22 -94 2 -2 16 37 31 86 23 71
32 90 47 90 11 0 19 -3 19 -6 0 -4 -20 -51 -45 -105 -25 -54 -45 -110 -45
-123 0 -18 -5 -25 -17 -24 -10 1 -27 0 -38 -1 -20 -2 -20 -2 -1 -16 15 -11 16
-15 5 -15 -8 0 -24 6 -35 14 -19 14 -19 16 4 81 13 37 34 84 47 104 31 48 40
119 21 164 -11 28 -12 48 -3 111 11 78 23 97 30 49 4 -28 4 -28 6 2 0 17 -4
36 -10 42 -26 26 44 182 106 236 41 35 44 25 6 -18z m-276 5 c-15 -6 -8 -9 27
-9 36 -1 50 -6 58 -21 8 -16 8 -18 -5 -14 -8 4 -17 -1 -21 -10 -3 -9 -12 -16
-20 -16 -8 0 -14 -4 -14 -10 0 -16 -46 -12 -60 5 -7 9 -10 19 -6 23 4 4 12 -1
17 -11 15 -25 27 -21 21 8 -2 15 -11 25 -21 25 -23 0 -31 9 -24 26 3 8 18 14
37 13 26 0 28 -2 11 -9z m2212 -31 c-13 -21 -33 -27 -21 -6 4 6 4 9 0 5 -4 -3
-8 -10 -8 -15 0 -4 -4 -14 -10 -20 -8 -10 -6 -13 5 -13 9 0 19 5 22 10 3 6 11
10 18 10 7 0 5 -6 -4 -16 -25 -24 -88 -9 -100 24 -8 21 -12 23 -19 12 -5 -8
-12 -11 -16 -7 -4 3 3 14 15 24 16 14 35 17 76 15 50 -4 53 -5 42 -23z m-609
-96 c43 -73 60 -140 43 -170 -9 -15 -11 -12 -11 17 -1 19 -8 58 -16 85 l-14
50 4 -45 5 -45 -19 23 c-22 27 -52 152 -36 152 2 0 22 -30 44 -67z m64 13 c13
-20 21 -157 9 -169 -8 -8 -11 2 -11 38 0 36 -10 69 -33 116 l-32 67 30 -21
c16 -12 33 -26 37 -31z m-1123 -13 c-20 -41 -29 -74 -29 -111 0 -33 -4 -51
-10 -47 -11 7 -13 80 -3 139 4 28 14 43 37 57 17 10 31 19 32 19 0 0 -12 -26
-27 -57z m75 25 c-10 -56 -24 -92 -45 -118 -17 -21 -20 -21 -14 -5 14 43 18
80 7 70 -9 -9 -21 -77 -25 -137 -1 -10 -5 -18 -10 -18 -5 0 -8 26 -5 58 3 45
12 71 42 120 43 69 58 78 50 30z m46 -15 c16 -35 23 -75 26 -148 3 -55 10
-120 15 -145 9 -42 14 -47 62 -68 79 -34 83 -37 66 -55 -13 -12 -21 -10 -66
19 -28 18 -63 49 -78 68 l-28 37 13 87 c11 82 11 90 -10 147 -26 70 -35 105
-27 105 4 0 16 -21 27 -47z m880 34 c0 -2 -11 -31 -25 -65 -28 -69 -30 -106
-14 -197 12 -61 11 -63 -17 -100 -15 -20 -50 -52 -77 -70 -42 -28 -53 -32 -68
-22 -18 11 -18 13 -2 25 10 8 41 24 68 36 48 22 52 26 63 75 7 29 12 88 12
131 0 79 30 190 51 190 5 0 9 -1 9 -3z m-1572 -70 c3 -52 -9 -55 -41 -12 -17
23 -17 25 0 44 27 29 38 20 41 -32z m514 -39 c-6 -73 -21 -96 -23 -38 -2 44
-2 44 -8 10 -4 -25 -8 -30 -13 -18 -10 23 2 60 26 80 12 10 21 17 22 18 1 0
-1 -24 -4 -52z m332 27 c16 -12 40 -94 31 -104 -2 -1 -20 9 -39 24 -26 20 -36
35 -36 55 0 42 12 49 44 25z m576 -20 c0 -24 -8 -41 -27 -60 -15 -14 -32 -25
-37 -25 -17 0 4 85 25 103 31 25 39 21 39 -18z m309 -27 c-1 -72 -5 -68 -12
10 -2 28 0 52 4 52 5 0 9 -28 8 -62z m-1063 6 c15 -36 12 -57 -5 -38 -11 11
-25 74 -16 74 3 0 13 -16 21 -36z m910 -7 c-3 -18 -13 -42 -20 -53 -13 -17
-13 -13 -5 29 5 27 11 53 15 58 11 19 16 0 10 -34z m184 -8 c0 -24 -4 -38 -10
-34 -5 3 -10 24 -10 46 0 24 4 38 10 34 6 -3 10 -24 10 -46z m-920 -63 c0 -4
-10 -2 -22 5 -18 10 -20 9 -14 -7 6 -15 2 -14 -18 5 -28 27 -32 41 -15 58 8 8
19 2 40 -22 16 -18 29 -36 29 -39z m624 51 c14 -22 -10 -47 -53 -52 l-31 -4
17 24 c10 13 21 25 26 25 4 0 7 7 7 16 0 19 20 14 34 -9z m-1027 -17 c2 -8
-10 -29 -26 -46 -15 -16 -32 -40 -35 -52 -8 -23 -46 -31 -46 -9 0 7 11 29 25
49 14 20 25 44 25 52 0 27 53 33 57 6z m1427 -45 c20 -36 36 -68 36 -70 0 -14
-39 -2 -44 13 -3 9 -22 34 -41 55 -29 31 -33 42 -24 53 21 26 37 15 73 -51z
m-824 -13 c0 -7 -11 0 -25 16 -14 17 -25 33 -25 38 0 4 11 -3 25 -16 14 -13
25 -30 25 -38z m200 49 c0 -5 -14 -20 -31 -32 -31 -22 -31 -22 -20 -1 6 12 19
26 29 31 21 13 22 13 22 2z m-1110 -26 c0 -26 -14 -33 -25 -15 -9 14 1 40 15
40 5 0 10 -11 10 -25z m374 -6 c55 -32 57 -68 7 -113 -21 -19 -21 -19 -21 7 0
14 5 29 10 32 19 12 10 26 -27 42 -48 19 -48 20 -33 38 16 20 22 19 64 -6z
m1286 6 c15 -19 15 -19 -34 -39 -30 -13 -37 -20 -31 -33 25 -60 12 -85 -18
-34 -27 45 -22 76 16 100 38 25 51 26 67 6z m-1141 -21 c24 -31 26 -52 6 -78
-11 -15 -15 -16 -19 -5 -11 39 -26 97 -26 103 0 14 20 4 39 -20z m966 9 c-4
-10 -11 -38 -16 -62 -9 -47 -19 -66 -19 -38 0 10 -4 17 -10 17 -18 0 -11 56
10 78 25 27 45 29 35 5z m-1131 -62 c-4 -9 -9 -26 -12 -39 -2 -13 -10 -21 -16
-18 -6 3 -28 10 -48 17 -38 12 -40 20 -11 66 13 20 15 20 54 5 30 -11 38 -19
33 -31z m518 32 c19 -17 25 -63 8 -63 -8 0 -40 61 -40 76 0 9 15 3 32 -13z
m237 -23 c-22 -46 -25 -47 -32 -20 -3 13 2 28 16 40 32 30 37 24 16 -20z m237
-85 c-2 -7 -29 -24 -58 -38 -29 -14 -62 -31 -72 -40 -19 -14 -19 -15 -2 -32
16 -16 16 -18 0 -36 -16 -17 -19 -18 -32 -5 -13 13 -13 17 -1 32 12 15 12 17
-1 12 -21 -6 -24 -42 -5 -58 23 -19 19 -37 -19 -83 -19 -23 -37 -54 -41 -70
-10 -39 -25 -33 -25 9 0 26 7 43 25 60 21 19 25 32 25 80 0 48 4 61 30 91 17
18 30 38 30 43 0 6 8 10 18 10 24 0 69 47 83 88 6 17 14 30 19 27 4 -3 11 5
16 18 6 16 9 7 11 -37 2 -32 2 -64 -1 -71z m-680 61 c8 -25 63 -86 79 -86 7 0
27 -19 45 -42 29 -36 35 -52 38 -106 4 -53 8 -66 28 -79 18 -12 24 -24 24 -54
0 -47 -16 -60 -25 -20 -3 17 -22 49 -41 73 -37 47 -42 69 -19 88 8 7 15 18 15
25 0 18 -72 75 -134 105 l-51 25 -3 65 c-3 64 -3 64 17 46 11 -10 23 -28 27
-40z m138 41 c22 -16 17 -50 -7 -55 -29 -6 -64 6 -71 24 -14 37 41 58 78 31z
m434 0 c9 -10 7 -19 -4 -35 -18 -26 -65 -29 -85 -6 -11 14 -10 19 10 35 27 22
64 25 79 6z m466 -11 c25 -39 23 -49 -9 -56 -16 -4 -38 -11 -47 -15 -15 -6
-18 -2 -18 19 0 14 -4 26 -10 26 -22 0 -8 29 18 38 41 16 48 14 66 -12z m-196
-31 c-1 -14 -6 -25 -10 -25 -4 0 -5 -7 -2 -15 4 -8 1 -15 -5 -15 -6 0 -10 -3
-9 -7 4 -14 -13 -53 -23 -53 -12 0 -12 13 1 26 5 5 12 25 14 44 2 19 9 36 14
38 6 2 8 10 5 18 -3 8 0 14 6 14 6 0 10 -11 9 -25z m-1020 -26 c7 -23 10 -44
7 -47 -9 -9 -26 21 -20 36 2 6 0 12 -5 12 -6 0 -10 9 -10 20 0 33 14 22 28
-21z m-493 -26 c8 -44 9 -67 6 -93 0 -5 -8 -10 -17 -10 -11 0 -15 6 -11 20 3
11 1 17 -4 14 -6 -3 -38 -2 -72 2 l-62 7 44 9 c25 4 57 5 72 3 37 -7 45 26 13
56 -25 24 -23 39 5 39 15 0 21 -11 26 -47z m-115 27 c0 -5 -25 -10 -56 -10
-34 0 -53 4 -49 10 3 6 28 10 56 10 27 0 49 -4 49 -10z m909 -28 c45 4 50 3
60 -20 7 -13 14 -22 18 -19 3 4 0 13 -7 21 -6 9 -10 21 -8 28 4 11 38 -40 38
-56 0 -8 -28 0 -45 14 -10 8 -34 13 -61 11 -47 -3 -67 8 -86 43 -10 19 -8 19
15 -3 22 -20 34 -23 76 -19z m460 2 c-21 -22 -30 -25 -70 -22 -37 4 -48 1 -58
-13 -6 -11 -17 -16 -26 -13 -8 4 -15 1 -15 -7 0 -7 -3 -10 -6 -6 -4 3 4 22 16
42 24 39 39 41 20 3 -11 -22 -11 -22 5 -3 13 16 25 19 63 17 38 -3 51 1 66 17
11 12 22 19 24 16 3 -3 -5 -17 -19 -31z m-846 -73 c-35 -47 -63 -65 -63 -41 0
16 29 70 59 109 l25 33 9 -25 c6 -20 1 -34 -30 -76z m516 50 c6 -19 11 -65 11
-102 0 -63 -2 -69 -21 -69 -17 0 -19 4 -13 18 11 22 11 138 1 177 -11 40 7 20
22 -24z m140 -16 c-10 -57 -9 -84 6 -132 6 -17 3 -23 -9 -23 -13 0 -16 12 -16
73 0 66 16 155 26 145 2 -3 -1 -31 -7 -63z m530 3 c23 -35 41 -68 41 -75 0
-27 -28 -11 -59 32 -18 25 -36 45 -41 45 -5 0 -4 14 1 30 6 17 12 30 14 30 2
0 22 -28 44 -62z m-1614 21 c5 -5 -23 -9 -68 -9 l-77 0 0 -35 c0 -21 -5 -35
-12 -36 -7 0 -24 -2 -37 -5 -14 -2 -28 1 -33 8 -10 16 -11 82 -1 92 9 9 216
-4 228 -15z m1875 1 c0 -11 -4 -20 -10 -20 -5 0 -14 9 -20 20 -9 17 -8 20 10
20 13 0 20 -7 20 -20z m-1599 -10 c27 -15 24 -27 -11 -45 -27 -14 -30 -14 -49
7 -35 36 10 64 60 38z m1535 -5 c14 -37 -50 -62 -76 -30 -11 13 -10 18 6 30
25 19 63 19 70 0z m-596 -11 c0 -3 -18 -24 -40 -48 -24 -26 -37 -47 -30 -51 5
-3 10 -26 10 -51 0 -35 -5 -49 -25 -66 -17 -14 -25 -32 -25 -53 0 -33 -1 -34
-100 -34 -88 0 -90 0 -90 36 0 24 -7 37 -26 50 -24 16 -26 21 -22 79 3 48 0
64 -12 72 -8 5 -23 24 -33 41 -18 31 -18 31 5 31 13 0 36 -12 51 -26 28 -24
29 -26 22 -95 l-7 -71 53 -54 c30 -29 58 -54 63 -54 5 0 34 25 64 55 52 54 54
57 48 98 -11 72 -8 93 19 124 20 22 33 29 51 25 13 -2 24 -6 24 -8z m-849 -42
c-13 -26 -17 -42 -10 -49 7 -7 -5 -20 -35 -39 l-46 -29 0 -66 c0 -61 -3 -70
-35 -110 -19 -24 -38 -59 -41 -76 -6 -32 -14 -40 -27 -26 -4 3 -25 14 -46 24
-37 16 -41 16 -53 1 -11 -13 -11 -15 4 -9 22 8 32 -7 15 -22 -11 -8 -19 -5
-37 14 l-23 24 24 10 c13 5 35 20 49 33 14 14 32 27 41 30 8 3 24 31 34 62
l19 55 -22 24 c-24 26 -29 57 -9 57 7 0 25 -11 40 -25 37 -35 35 -73 -7 -144
-41 -70 -50 -97 -36 -106 6 -4 10 4 10 17 0 14 16 50 35 82 45 75 47 126 8
161 l-28 23 20 24 20 23 -27 -24 c-34 -29 -55 -20 -31 14 15 20 27 24 69 25
45 0 52 3 63 26 6 15 15 24 18 20 12 -11 -20 -55 -46 -65 -14 -5 -19 -9 -11
-10 29 0 49 14 80 57 38 53 49 49 21 -6z m1338 -29 c11 -13 31 -22 43 -22 22
2 22 2 2 6 -26 5 -60 40 -50 50 4 5 12 0 17 -10 8 -13 23 -17 62 -17 42 0 55
-4 65 -21 21 -33 -1 -46 -26 -15 -11 14 -25 26 -30 26 -6 0 0 -12 14 -27 l26
-28 -31 -26 c-39 -32 -42 -83 -8 -126 46 -57 72 -143 48 -157 -5 -4 -12 8 -16
25 -4 17 -21 47 -38 66 -28 32 -32 44 -36 111 l-3 74 -44 31 c-28 20 -41 34
-35 40 6 6 3 24 -10 48 -26 51 -24 60 6 24 13 -16 33 -40 44 -52z m-1195 27
l26 -39 -44 -30 c-23 -16 -68 -41 -98 -55 -49 -22 -58 -31 -77 -76 -12 -27
-24 -50 -26 -50 -3 0 -5 29 -5 64 l0 64 56 33 c32 20 70 54 90 82 19 26 38 47
43 47 4 0 20 -18 35 -40z m1078 -7 c16 -23 51 -56 79 -74 28 -17 55 -43 60
-56 12 -31 12 -103 0 -103 -5 0 -18 22 -30 49 -14 32 -29 52 -43 56 -37 11
-168 88 -168 98 0 18 52 78 63 74 7 -2 24 -22 39 -44z m-982 -32 c0 -27 3 -58
6 -68 5 -14 4 -15 -5 -7 -17 15 -27 124 -12 124 7 0 11 -19 11 -49z m825 -27
c-9 -65 -27 -67 -20 -2 4 29 9 60 12 68 10 26 16 -18 8 -66z m-667 -17 c19
-18 30 -47 17 -47 -19 0 -107 67 -119 91 l-14 29 46 -27 c26 -14 57 -35 70
-46z m594 44 c-14 -25 -99 -91 -116 -91 -14 0 -4 28 17 47 18 16 106 73 114
73 1 0 -5 -13 -15 -29z m-532 -21 c0 -4 -7 -13 -16 -20 -21 -18 -49 9 -39 39
6 19 8 20 31 5 13 -9 24 -20 24 -24z m-290 -4 c0 -9 -55 -44 -80 -50 -14 -4
-3 6 25 23 53 32 55 33 55 27z m935 -25 c-7 -12 63 -61 85 -60 10 0 11 2 3 6
-7 2 -13 8 -13 13 0 11 74 -16 78 -29 5 -16 -62 -14 -102 3 -19 8 -39 22 -45
33 -10 17 -10 16 -11 -4 0 -12 5 -25 10 -28 6 -4 7 -11 4 -17 -4 -6 -10 -6
-17 1 -17 17 -46 13 -78 -10 -16 -11 -29 -17 -29 -13 0 13 43 54 56 54 8 0 23
14 36 30 20 28 37 42 23 21z m-1517 -7 c37 -10 25 -24 -23 -24 -29 0 -45 -5
-46 -12 -1 -7 -2 -20 -3 -28 -1 -19 -46 -22 -46 -3 0 8 5 11 10 8 6 -3 13 2
17 12 16 46 42 60 91 47z m622 -14 c6 -11 16 -20 23 -20 16 0 73 -58 65 -65
-3 -3 -23 6 -43 20 -36 24 -39 24 -57 9 -23 -21 -33 -13 -18 15 13 26 13 26
-41 2 -44 -19 -119 -26 -119 -11 0 4 20 14 45 22 40 14 44 14 33 0 -11 -13 -9
-14 12 -7 29 9 69 37 70 48 0 14 20 7 30 -13z m1290 8 c0 -7 -9 -24 -20 -38
-11 -14 -20 -32 -20 -41 0 -32 32 -109 47 -109 8 0 26 -13 40 -30 13 -16 33
-30 44 -30 21 0 25 -20 7 -38 -14 -14 -48 -16 -48 -3 0 5 10 11 23 14 20 3 20
4 4 12 -12 5 -31 2 -53 -8 l-34 -17 0 30 c0 31 -41 123 -60 135 -5 3 -10 25
-10 48 0 33 6 46 28 64 30 25 52 29 52 11z m272 -5 c10 -9 18 -21 18 -27 0 -6
-5 -5 -12 2 -7 7 -31 12 -55 12 -65 0 -53 22 16 29 8 0 23 -6 33 -16z m-1369
-65 c13 -16 17 -38 17 -100 0 -96 -15 -95 -24 1 -7 73 -15 86 -73 115 -21 11
-33 24 -33 37 0 20 2 20 48 -6 26 -15 55 -36 65 -47z m597 53 c0 -12 -17 -29
-46 -46 -50 -29 -64 -55 -64 -118 0 -23 -5 -49 -10 -57 -7 -10 -9 13 -8 75 l3
89 40 28 c33 23 68 44 83 47 1 1 2 -8 2 -18z m-1209 -23 c5 -60 -24 -120 -50
-104 -17 11 -13 41 10 80 21 37 38 46 40 24z m1747 -27 c24 -43 28 -66 11 -76
-17 -11 -46 23 -52 62 -11 64 9 71 41 14z m246 16 c17 -13 17 -14 -7 -30 -23
-15 -26 -15 -41 2 -9 10 -16 23 -16 29 0 16 42 15 64 -1z m303 -1 c12 -12 -7
-19 -51 -19 -38 0 -43 -3 -41 -21 3 -46 -40 -64 -51 -21 -7 27 -38 50 -54 40
-6 -3 -10 1 -10 9 0 8 8 17 18 19 24 7 181 1 189 -7z m-2767 -6 c0 -5 11 -10
25 -10 22 0 24 -3 15 -19 -6 -13 -17 -17 -30 -14 -12 3 -20 0 -20 -6 0 -7 5
-9 10 -6 6 3 10 -1 10 -9 0 -31 -29 -16 -35 17 -6 29 -10 33 -31 29 -17 -3
-24 0 -24 12 0 12 10 16 40 16 22 0 40 -4 40 -10z m140 -12 c0 -17 -3 -19 -9
-9 -5 7 -14 10 -20 7 -6 -4 -11 0 -11 8 0 9 9 16 20 16 14 0 20 -7 20 -22z
m130 8 c0 -3 -4 -16 -10 -30 -6 -17 -14 -24 -25 -20 -15 6 -21 35 -8 47 7 8
43 10 43 3z m1080 -5 c0 -5 -6 -14 -14 -20 -11 -9 -18 -8 -30 4 -22 22 -20 25
14 25 17 0 30 -4 30 -9z m-617 -43 c-31 -34 -43 -63 -43 -101 0 -39 -24 -68
-34 -41 -3 8 -6 31 -6 50 0 24 4 32 14 28 19 -7 32 16 15 27 -13 8 -12 10 10
13 5 0 13 5 18 10 5 5 3 6 -4 2 -18 -10 -16 9 2 24 12 10 15 10 15 -1 0 -11 2
-11 9 1 6 8 7 19 4 25 -3 5 0 4 7 -2 11 -11 10 -17 -7 -35z m397 28 c6 -8 13
-51 15 -96 2 -52 8 -89 19 -105 36 -54 13 -60 -27 -7 -28 35 -29 41 -23 109 4
45 3 80 -4 93 -12 23 2 27 20 6z m404 -81 c-1 -88 -3 -97 -30 -132 -23 -31
-29 -34 -32 -20 -2 10 4 27 13 37 13 14 17 38 17 102 0 64 4 85 17 95 9 7 16
13 16 13 0 0 0 -43 -1 -95z m-834 78 c0 -5 -11 -21 -25 -38 -28 -34 -34 -17
-7 20 17 24 32 32 32 18z m140 -18 c0 -14 5 -25 10 -25 6 0 10 -16 10 -37 0
-35 0 -36 -20 -18 -14 13 -20 31 -20 62 0 23 5 43 10 43 6 0 10 -11 10 -25z
m920 19 c0 -3 -11 -20 -25 -38 l-25 -33 0 -402 0 -403 52 -59 c28 -32 49 -61
47 -64 -3 -2 -31 22 -63 53 l-57 58 1 414 0 414 26 33 c22 29 44 43 44 27z
m70 -37 c0 -33 -6 -49 -25 -67 -25 -23 -25 -23 -25 -3 0 30 11 54 21 47 5 -3
9 11 9 30 0 20 5 36 10 36 6 0 10 -19 10 -43z m121 6 c28 -32 32 -43 12 -36
-15 5 -16 4 -7 -8 7 -8 14 -23 17 -34 4 -18 5 -18 6 3 0 12 6 22 12 22 6 0 9
-17 7 -42 -2 -31 -8 -44 -20 -46 -15 -3 -18 4 -18 42 0 25 -4 47 -10 51 -5 3
-7 12 -4 19 3 7 -6 21 -20 30 -30 19 -36 42 -8 27 9 -5 24 -17 33 -28z m33 6
c10 -17 16 -33 13 -35 -6 -6 -47 45 -47 57 0 18 16 8 34 -22z m574 11 c23 0 2
-17 -28 -23 -14 -2 -5 -5 22 -6 26 0 50 -5 53 -11 4 -6 -26 -10 -84 -10 -49 0
-93 5 -96 10 -4 6 5 10 20 10 17 0 24 4 19 11 -10 17 17 30 50 24 16 -3 36 -5
44 -5z m-2640 -33 c2 -19 -1 -27 -13 -27 -19 0 -30 24 -21 46 9 23 31 11 34
-19z m1126 -24 c9 -26 16 -54 15 -62 0 -19 -49 85 -49 106 0 26 18 3 34 -44z
m592 40 c-4 -9 -14 -39 -23 -67 -9 -28 -19 -44 -21 -37 -6 18 28 121 40 121 6
0 7 -8 4 -17z m-836 -20 c-1 -16 -8 -39 -16 -53 l-15 -25 5 25 c3 14 6 37 6
53 0 15 5 27 10 27 6 0 10 -12 10 -27z m1064 -8 c-3 -6 2 -25 11 -41 l16 -29
-7 35 c-6 31 -5 33 10 21 9 -8 16 -28 16 -51 0 -29 5 -39 20 -43 18 -5 80 -90
80 -111 0 -16 -50 36 -71 74 -13 23 -19 27 -16 13 5 -22 4 -22 -19 -5 -13 9
-24 26 -24 37 0 11 -7 33 -15 49 -16 31 -22 102 -6 77 5 -8 7 -19 5 -26z
m-1671 15 c20 0 37 -4 37 -10 0 -6 -38 -10 -95 -10 -52 0 -95 4 -95 8 0 19 17
24 65 18 28 -3 67 -6 88 -6z m982 -20 c8 -13 -4 -50 -16 -50 -5 0 -9 14 -9 30
0 30 13 40 25 20z m315 -25 c0 -19 -2 -35 -5 -35 -10 0 -24 40 -19 54 11 28
24 17 24 -19z m-723 -29 c1 -41 -3 -60 -18 -77 -24 -28 -33 -20 -19 15 5 15
10 42 10 60 0 24 14 56 25 56 0 0 1 -24 2 -54z m-573 29 c4 -12 -6 -15 -58
-15 -36 0 -71 3 -80 6 -33 13 -2 24 64 24 51 0 69 -4 74 -15z m446 -4 c0 -10
-9 -29 -20 -42 l-19 -24 -1 23 c0 24 20 62 32 62 5 0 8 -9 8 -19z m360 -5 c0
-6 16 -36 35 -66 37 -60 44 -80 19 -59 -38 31 -97 164 -64 144 6 -3 10 -12 10
-19z m647 -43 c-29 -57 -66 -104 -67 -85 0 8 8 26 19 40 10 15 29 47 41 72 13
25 25 40 27 33 2 -6 -7 -33 -20 -60z m389 50 c7 -10 14 -29 14 -42 0 -23 -1
-24 -20 -6 -11 10 -20 29 -20 42 0 27 8 29 26 6z m559 10 c36 -6 38 -7 15 -14
-14 -4 -55 -7 -92 -8 -63 -1 -79 5 -61 22 8 9 86 9 138 0z m-1701 -48 c-10
-33 -35 -54 -70 -61 -18 -3 -39 -13 -45 -21 -16 -19 -69 -46 -77 -39 -6 7 -10
4 53 43 28 18 62 34 76 38 26 6 49 40 49 73 0 15 2 15 10 2 5 -8 7 -24 4 -35z
m876 24 c0 -32 17 -56 45 -63 33 -8 125 -65 125 -77 0 -10 -75 25 -84 40 -4 5
-20 12 -36 16 -16 4 -39 18 -50 32 -21 27 -27 73 -10 73 6 0 10 -9 10 -21z
m-1401 -16 c-8 -10 -20 -24 -26 -31 -19 -20 -16 -46 7 -67 11 -10 20 -27 20
-37 0 -18 -2 -18 -30 5 -16 14 -33 27 -37 29 -5 1 -7 27 -5 55 2 29 8 51 12
48 5 -3 19 -1 32 4 35 15 42 13 27 -6z m221 4 c0 -15 -62 -99 -68 -92 -8 8 8
52 29 78 22 29 39 35 39 14z m1508 -16 c11 -16 24 -42 28 -57 l7 -29 -23 20
c-19 17 -50 72 -50 90 0 14 18 2 38 -24z m-1270 2 c-5 -25 -28 -28 -28 -4 0
12 6 21 16 21 9 0 14 -7 12 -17z m386 -70 c-4 -29 -3 -43 5 -43 6 0 11 16 11
37 0 27 3 34 11 26 13 -13 2 -136 -12 -127 -5 3 -9 16 -9 30 0 13 -4 24 -10
24 -5 0 -10 8 -10 18 -1 9 -7 34 -15 56 -7 21 -11 45 -8 54 5 12 10 11 25 -8
15 -18 17 -32 12 -67z m213 70 c-19 -20 -92 -34 -137 -27 -39 6 -80 24 -80 35
0 4 52 7 116 7 105 0 115 -1 101 -15z m423 -3 c0 -11 -7 -20 -15 -20 -8 0 -15
9 -15 20 0 11 7 20 15 20 8 0 15 -9 15 -20z m492 1 c3 -3 8 -25 9 -49 3 -38 0
-45 -35 -74 -33 -27 -37 -35 -32 -64 4 -18 2 -35 -3 -39 -16 -9 -26 45 -12 66
6 10 11 26 11 34 0 9 9 29 21 44 18 25 19 32 8 52 -7 13 -19 30 -28 37 -14 11
-11 12 19 6 19 -3 38 -9 42 -13z m-876 -18 c-4 -16 -9 -47 -13 -70 -3 -24 -10
-43 -14 -43 -14 0 -11 114 3 128 20 20 31 13 24 -15z m1164 15 c0 -10 -35 -13
-136 -15 -115 -1 -133 1 -123 13 16 19 259 21 259 2z m-812 -69 c18 -6 32 -17
32 -25 0 -8 7 -14 15 -14 14 0 55 -37 55 -51 0 -4 -40 13 -90 38 -49 24 -90
49 -90 54 0 6 13 1 29 -10 16 -12 40 -21 53 -20 21 0 20 2 -7 12 -45 18 -75
40 -75 56 0 11 6 9 23 -7 13 -12 37 -27 55 -33z m-1168 19 c0 -12 -14 -37 -32
-55 -29 -30 -32 -31 -44 -15 -18 23 -17 39 4 67 23 33 72 35 72 3z m70 17 c0
-15 -40 -82 -59 -99 -23 -21 -27 -16 -10 17 30 58 69 105 69 82z m172 -17
c-12 -13 -39 -28 -60 -34 -30 -10 -33 -12 -12 -13 14 0 40 8 58 19 17 11 32
16 32 12 0 -10 -180 -105 -187 -98 -3 2 8 17 23 31 16 15 38 35 49 46 12 10
28 19 37 19 9 0 26 9 39 20 33 27 49 25 21 -2z m1182 -8 c16 -29 17 -33 2 -56
l-17 -24 -29 34 c-39 44 -40 76 -2 76 20 0 32 -8 46 -30z m-655 -67 c-1 -74
-3 -82 -10 -48 -14 70 -11 135 8 135 2 0 2 -39 2 -87z m-300 40 c21 -21 42
-51 45 -68 8 -32 0 -29 -18 7 -7 13 -17 23 -24 23 -12 0 -52 52 -52 68 0 14
11 7 49 -30z m232 22 l37 6 4 -76 c3 -76 -3 -95 -30 -95 -10 0 -12 6 -7 23 14
43 17 77 11 102 -6 23 -11 26 -44 23 -37 -3 -37 -3 -40 -52 -2 -27 2 -54 7
-59 15 -15 14 -37 -3 -37 -29 0 -36 26 -30 103 l7 75 25 -9 c15 -6 43 -7 63
-4z m223 -3 c-3 -9 -21 -35 -40 -57 -20 -22 -33 -33 -29 -25 4 8 -1 6 -9 -4
-16 -19 -16 -19 -16 -1 0 18 76 105 91 105 4 0 5 -8 3 -18z m-536 -39 c13 -10
39 -33 60 -51 20 -17 56 -39 80 -48 47 -19 49 -22 26 -66 -18 -35 -22 -134 -6
-163 7 -14 8 -104 3 -277 -6 -266 -21 -364 -21 -147 0 68 -3 216 -6 329 -6
183 -9 207 -25 223 -18 17 -19 17 -19 -6 0 -121 -12 -522 -15 -526 -3 -2 -5
127 -5 286 0 160 -3 293 -7 295 -14 6 -111 157 -105 162 9 9 17 7 40 -11z
m312 -27 c0 -32 -5 -46 -17 -50 -26 -10 -41 14 -36 57 4 31 9 37 29 37 22 0
24 -4 24 -44z m300 36 c0 -4 -19 -37 -42 -74 l-43 -66 3 -161 3 -160 44 -32
c59 -42 58 -59 0 -59 -25 0 -45 5 -45 10 0 6 2 10 4 10 2 0 13 3 23 6 15 5 15
4 3 -5 -18 -13 -1 -15 18 -2 10 6 5 14 -22 30 l-36 23 0 164 c0 103 -4 164
-10 164 -6 0 -10 -107 -11 -297 -1 -186 -4 -283 -10 -258 -4 22 -8 152 -8 289
-1 244 -1 248 -20 225 -25 -33 -32 -133 -31 -446 0 -142 -4 -253 -9 -253 -14
0 -23 49 -16 84 7 29 6 30 -8 11 -12 -16 -17 -17 -30 -6 -9 7 -18 25 -20 39
-3 22 -4 20 -6 -9 0 -19 6 -44 14 -55 16 -21 20 -94 5 -94 -5 0 -10 17 -10 39
0 22 -6 44 -15 51 -13 11 -15 55 -15 285 0 259 1 273 20 290 13 12 20 31 20
57 0 21 5 38 10 38 18 0 10 -74 -10 -100 -16 -21 -19 -39 -18 -115 1 -57 3
-71 5 -38 2 28 10 57 18 63 15 12 17 9 37 -50 8 -24 21 157 14 192 -3 17 -13
39 -21 48 -19 20 -10 32 47 59 27 13 51 27 54 32 8 13 97 78 107 79 4 0 7 -4
7 -8z m-1150 -10 c0 -20 -40 -43 -68 -40 -26 3 -28 6 -21 26 7 18 16 22 49 22
22 0 40 -4 40 -8z m61 -25 c10 -24 10 -31 -2 -38 -20 -13 -29 -11 -29 6 0 9
-6 12 -15 9 -17 -7 -21 21 -5 31 6 4 8 10 5 15 -3 5 4 8 14 7 12 -1 25 -13 32
-30z m1569 24 c0 -6 -5 -13 -11 -17 -6 -3 -9 -15 -6 -25 3 -10 1 -22 -4 -25
-5 -3 -9 0 -9 6 0 6 -4 8 -10 5 -13 -8 -13 21 0 46 11 19 40 27 40 10z m108
-18 c3 -20 -1 -23 -30 -23 -36 0 -58 15 -58 38 0 9 12 12 43 10 35 -2 43 -7
45 -25z m-417 -55 c8 -3 11 -8 7 -12 -14 -16 -98 45 -98 72 0 9 14 1 39 -21
21 -19 44 -37 52 -39z m-1496 52 c4 -6 -9 -10 -32 -10 -21 0 -48 -3 -61 -6
-18 -5 -21 -3 -16 10 4 12 19 16 54 16 27 0 52 -4 55 -10z m399 -12 c-27 -33
-46 -48 -61 -48 -24 0 -13 19 24 45 47 31 62 32 37 3z m196 19 c0 -2 -10 -16
-22 -30 -24 -27 -78 -53 -78 -37 0 5 8 11 18 14 11 4 29 18 42 31 20 22 40 32
40 22z m72 -240 c2 -112 0 -147 -9 -147 -15 0 -18 170 -5 310 8 98 10 78 14
-163z m1007 191 c56 -40 60 -46 61 -81 0 -27 -4 -37 -12 -34 -7 2 -12 13 -11
24 1 11 -7 29 -17 38 -11 10 -20 24 -20 32 0 8 -5 11 -10 8 -14 -9 -56 19 -71
47 -16 29 2 22 80 -34z m156 12 c5 -22 1 -37 -14 -56 -12 -15 -21 -41 -21 -59
0 -21 -5 -32 -15 -32 -10 0 -15 10 -14 26 0 24 1 24 9 6 7 -16 9 -11 9 21 1
25 9 51 20 65 17 21 17 25 3 35 -8 6 -12 16 -8 23 11 17 24 5 31 -29z m270 29
c4 -6 5 -11 4 -13 -9 -6 -99 7 -99 15 0 13 87 11 95 -2z m-1219 -44 c4 -21 3
-27 -4 -20 -6 6 -14 24 -18 40 -4 21 -3 27 4 20 6 -5 14 -23 18 -40z m464
-129 c0 -96 3 -181 6 -190 4 -11 1 -16 -10 -16 -14 0 -16 22 -16 190 0 120 4
190 10 190 6 0 10 -65 10 -174z m-1330 143 c0 -7 -11 -22 -24 -34 -14 -13 -22
-26 -19 -29 4 -3 -7 -6 -23 -5 -25 0 -26 2 -9 9 17 7 17 9 3 9 -29 1 -20 21
10 22 l27 2 -27 4 c-27 4 -35 13 -21 26 11 12 83 8 83 -4z m253 -31 c-35 -37
-40 -48 -37 -78 3 -30 2 -32 -5 -10 l-9 25 -2 -25 c-2 -19 -4 -16 -11 15 -5
21 -18 49 -29 60 -24 25 -25 35 -6 35 8 0 22 -10 30 -22 l16 -23 32 33 c18 17
39 32 47 32 9 0 -1 -17 -26 -42z m1479 13 c18 -16 30 -32 26 -36 -7 -7 -78 45
-78 58 0 15 21 6 52 -22z m326 12 c2 -9 -8 -14 -30 -15 l-33 -1 33 -4 c17 -2
32 -6 32 -8 0 -16 -15 -35 -29 -35 -14 0 -14 2 -1 10 12 8 10 10 -10 10 -26 0
-55 33 -44 51 8 14 77 7 82 -8z m-1598 -18 c-23 -28 -150 -79 -135 -54 8 12
-2 11 -28 -3 -20 -10 -21 -10 -9 5 7 8 25 15 40 15 29 -1 85 21 117 45 24 19
33 14 15 -8z m210 -360 c-25 -27 -17 -33 13 -11 15 12 17 33 17 180 0 109 3
165 10 161 6 -4 10 -71 10 -169 l0 -164 -34 -26 c-19 -14 -36 -26 -38 -26 -10
0 -2 50 10 62 8 8 12 64 14 198 l1 185 10 -183 10 -183 -23 -24z m-626 349
c-3 -29 -11 -41 -20 -31 -9 8 4 57 15 57 4 0 7 -12 5 -26z m1256 -168 c0 -149
2 -170 17 -182 10 -7 15 -16 11 -20 -5 -4 -17 1 -28 11 -19 17 -20 31 -20 204
0 124 4 181 10 171 5 -8 10 -91 10 -184z m274 160 c39 -18 61 -24 66 -16 4 7
14 2 26 -12 18 -22 18 -22 0 -8 -14 11 -20 12 -23 3 -7 -20 -127 27 -138 54
-3 8 -2 13 2 11 5 -2 35 -16 67 -32z m292 -93 c-41 -35 -50 -30 -42 23 3 26 6
58 6 72 0 19 4 23 20 19 11 -3 21 0 21 6 1 7 6 -13 11 -43 10 -52 9 -55 -16
-77z m-1765 105 c0 -10 2 -10 6 0 9 23 21 12 26 -25 2 -21 8 -50 11 -65 8 -36
-6 -42 -38 -17 -22 17 -26 28 -26 70 0 27 5 49 10 49 6 0 10 -6 11 -12z m199
2 c0 -6 -7 -21 -16 -35 -8 -13 -14 -31 -12 -41 2 -9 -3 -19 -9 -21 -8 -3 -13
5 -13 22 0 17 -4 24 -12 19 -15 -9 -2 14 25 44 22 24 37 29 37 12z m-123 -83
c8 -49 -9 -47 -25 3 -17 54 -16 68 3 49 9 -8 18 -32 22 -52z m313 34 c0 -29
-26 -47 -45 -31 -14 12 -14 15 1 31 22 24 44 24 44 0z m779 -163 l1 -146 27
-20 c16 -11 25 -24 21 -27 -4 -4 -20 3 -37 16 l-30 24 0 170 c0 104 4 162 9
150 5 -11 9 -86 9 -167z m253 165 c22 -20 23 -29 2 -37 -21 -8 -44 11 -44 35
0 23 18 24 42 2z m292 -32 c-7 -41 -24 -57 -24 -22 0 25 19 75 26 69 2 -3 2
-24 -2 -47z m-1934 11 c0 -14 -59 -66 -67 -59 -3 4 6 21 22 37 28 30 45 38 45
22z m1124 2 c9 -3 16 -16 16 -28 0 -12 -3 -16 -8 -10 -12 17 -39 23 -51 11
-16 -16 -26 0 -11 18 13 16 29 19 54 9z m474 -249 l2 141 45 44 c54 53 71 47
21 -7 l-35 -39 -3 -143 -2 -142 46 -44 46 -44 133 -3 134 -3 -4 -45 c-1 -25
-5 -47 -8 -50 -2 -3 -56 -7 -120 -10 l-115 -5 5 42 c4 38 2 41 -22 47 -14 3
-54 33 -88 67 l-63 61 0 187 c0 103 3 191 8 195 4 4 9 -82 12 -191 5 -191 6
-193 8 -58z m-728 78 l0 -143 -41 -30 c-33 -23 -38 -31 -25 -36 9 -3 23 -4 31
0 8 3 15 1 15 -4 0 -6 -17 -10 -38 -10 -52 0 -53 27 -1 60 l39 24 0 156 c0
104 4 150 10 140 5 -8 10 -79 10 -157z m-1070 142 c0 -8 -9 -15 -20 -15 -11 0
-20 7 -20 15 0 8 9 15 20 15 11 0 20 -7 20 -15z m80 0 c0 -8 -9 -15 -20 -15
-11 0 -20 7 -20 15 0 8 9 15 20 15 11 0 20 -7 20 -15z m1060 -210 c3 -349 0
-516 -10 -510 -6 4 -10 129 -10 343 0 209 4 332 9 327 6 -6 10 -77 11 -160z
m350 -138 c0 -161 -3 -309 -6 -329 -12 -72 -24 -37 -24 70 0 217 13 561 22
556 4 -3 8 -137 8 -297z m528 106 c2 -27 1 -27 -43 17 -28 28 -44 54 -45 70 0
23 2 22 43 -18 27 -26 43 -52 45 -69z m-1344 82 c3 -9 -12 -32 -40 -60 -26
-25 -48 -45 -49 -45 -2 0 -3 10 -3 23 1 20 63 97 79 97 4 0 9 -7 13 -15z
m1214 -128 c2 -10 -3 -17 -12 -17 -18 0 -29 16 -21 31 9 14 29 6 33 -14z m92
-92 c30 -30 48 -55 40 -55 -15 0 -110 88 -110 102 0 18 18 5 70 -47z m-930 -6
c0 -5 -12 -10 -27 -10 l-28 -2 28 -4 c15 -2 27 -9 27 -15 0 -6 -11 -8 -25 -6
-14 3 -25 1 -25 -3 0 -5 10 -9 23 -9 16 0 23 -6 24 -20 2 -17 -4 -20 -36 -20
l-37 0 0 49 -1 49 38 0 c22 1 39 -3 39 -9z m586 2 c-8 -12 -86 -12 -86 0 0 5
21 9 46 9 25 0 43 -4 40 -9z m-1088 -28 c-3 -17 -38 -28 -38 -12 0 4 -7 6 -15
3 -9 -4 -15 0 -15 10 0 12 10 16 36 16 28 0 35 -4 32 -17z m1677 7 c4 -6 -12
-10 -39 -10 -25 0 -46 5 -46 10 0 6 18 10 39 10 22 0 43 -4 46 -10z m-585 -10
c0 -5 -10 -10 -22 -11 -22 -1 -22 -1 2 -9 20 -6 14 -8 -25 -8 -39 0 -45 2 -25
8 16 5 19 8 8 9 -9 1 -20 6 -23 11 -4 6 12 10 39 10 25 0 46 -4 46 -10z m-10
-50 c0 -5 -18 -10 -41 -10 -24 0 -38 4 -34 10 3 6 22 10 41 10 19 0 34 -4 34
-10z m-608 -67 l36 -38 -7 -70 c-5 -47 -10 -64 -15 -53 -5 10 -6 36 -4 58 3
31 0 41 -13 45 -23 8 -72 73 -64 85 11 18 31 10 67 -27z m625 26 c9 -9 1 -21
-31 -50 -39 -35 -42 -42 -40 -81 1 -24 -2 -52 -6 -63 -7 -15 -9 -8 -11 28 -3
70 -3 71 -13 78 -8 7 70 99 83 99 4 0 12 -5 18 -11z m-934 -14 c7 -18 -6 -27
-27 -19 -17 7 -20 16 -9 27 11 12 31 8 36 -8z m251 -62 c43 -41 47 -47 30 -53
-14 -5 -30 3 -59 29 -22 19 -40 39 -39 43 3 24 5 28 12 28 4 0 29 -21 56 -47z
m744 35 c9 -9 1 -22 -34 -55 -25 -23 -50 -41 -54 -38 -5 3 -6 -3 -3 -14 3 -10
0 -22 -6 -25 -7 -5 -11 5 -11 26 0 25 9 42 43 74 49 48 49 48 65 32z m-780
-102 c23 -22 42 -44 42 -48 0 -14 -39 -9 -57 7 -10 9 -33 29 -52 45 -29 25
-32 31 -21 45 15 18 20 15 88 -49z m801 -2 c-23 -22 -47 -44 -54 -50 -7 -8
-17 -9 -28 -2 -14 8 -8 17 41 63 48 45 59 51 71 40 11 -11 6 -19 -30 -51z
m449 55 c-2 -6 -41 -10 -98 -10 -115 -1 -113 -1 -105 11 9 14 208 13 203 -1z"/>
<path d="M1152 2458 c-16 -16 -15 -48 1 -48 9 0 9 -2 -1 -9 -17 -10 -11 -126
6 -143 9 -9 12 9 12 74 0 57 -4 88 -12 90 -20 7 2 28 28 28 14 0 22 4 19 10
-8 14 -38 13 -53 -2z"/>
<path d="M1827 2463 c-3 -5 1 -13 8 -20 10 -9 15 -9 17 -1 2 6 10 8 17 4 7 -5
9 -12 3 -19 -5 -7 -10 -50 -11 -97 -1 -52 2 -80 7 -72 5 8 10 44 11 80 1 37 4
75 7 85 3 10 0 24 -6 32 -13 16 -46 20 -53 8z"/>
<path d="M746 1385 c-6 -17 16 -31 33 -21 13 9 2 36 -14 36 -7 0 -16 -7 -19
-15z"/>
<path d="M2247 1394 c-14 -14 -7 -35 11 -32 9 2 17 10 17 17 0 16 -18 25 -28
15z"/>
<path d="M1574 445 c0 -72 1 -99 3 -62 2 37 2 96 0 130 -2 34 -3 4 -3 -68z"/>
<path d="M2228 363 c26 -3 32 -9 32 -29 0 -13 5 -24 10 -24 6 0 10 9 10 20 0
11 4 20 10 20 5 0 7 -7 4 -15 -4 -8 -1 -15 5 -15 6 0 11 7 11 15 0 21 28 19
33 -2 4 -15 5 -15 7 2 1 20 1 20 10 0 8 -19 9 -19 9 2 1 14 -5 22 -16 21 -10
0 -49 2 -88 5 -38 2 -55 3 -37 0z"/>
<path d="M1705 2808 c4 -9 1 -26 -5 -38 -9 -18 -18 -21 -41 -16 -31 6 -41 -9
-11 -16 45 -12 93 45 63 75 -9 9 -11 8 -6 -5z"/>
<path d="M1401 2779 c-11 -26 -18 -30 -43 -27 -17 3 -27 0 -25 -6 3 -9 20 -11
57 -7 11 1 32 49 28 63 -2 4 -9 -6 -17 -23z"/>
<path d="M1057 2744 c-12 -12 -8 -41 8 -54 20 -17 47 5 43 34 -3 21 -37 34
-51 20z"/>
<path d="M1915 2729 c-14 -42 44 -63 59 -22 4 9 1 22 -5 29 -17 21 -47 17 -54
-7z"/>
<path d="M922 2703 c-11 -11 -11 -17 -1 -29 11 -14 13 -14 21 0 5 9 5 22 1 30
-7 12 -10 12 -21 -1z"/>
<path d="M2104 2702 c-6 -4 -13 -15 -17 -25 -6 -15 -4 -16 13 -7 10 5 21 14
25 19 7 13 -8 22 -21 13z"/>
<path d="M1303 2653 c-2 -38 0 -43 7 -25 5 12 14 22 20 22 17 0 7 44 -10 48
-11 2 -16 -9 -17 -45z"/>
<path d="M1700 2684 c-11 -12 -10 -18 3 -32 16 -15 17 -14 17 16 0 36 -2 38
-20 16z"/>
<path d="M1027 2585 c4 -16 -2 -29 -16 -41 -12 -10 -21 -25 -21 -34 1 -10 9
-6 25 13 25 28 33 71 16 81 -4 3 -6 -5 -4 -19z"/>
<path d="M680 2535 c-10 -12 -10 -18 0 -30 15 -19 21 -19 45 -1 16 12 17 16 6
30 -17 20 -35 20 -51 1z"/>
<path d="M2294 2535 c-8 -20 4 -35 27 -35 24 0 37 29 18 41 -21 13 -39 11 -45
-6z"/>
<path d="M533 2484 c-3 -8 1 -23 10 -31 13 -13 19 -14 31 -3 9 7 16 17 16 23
0 6 -6 3 -13 -8 -17 -22 -40 -11 -32 16 8 23 -3 26 -12 3z"/>
<path d="M2438 2488 c-7 -17 1 -38 13 -38 6 0 9 7 7 16 -2 10 3 19 10 21 15 6
16 -19 0 -35 -9 -9 -9 -12 0 -12 19 0 33 35 20 48 -16 16 -45 15 -50 0z"/>
<path d="M697 2293 c-11 -10 -8 -61 3 -68 6 -4 10 10 10 34 0 42 -2 46 -13 34z"/>
<path d="M2320 2260 c0 -25 4 -39 10 -35 6 3 10 19 10 35 0 16 -4 32 -10 35
-6 4 -10 -10 -10 -35z"/>
<path d="M2430 2280 c0 -22 -10 -26 -28 -8 -15 15 -27 -14 -17 -39 8 -17 8
-17 12 0 5 19 42 24 44 5 1 -7 5 -2 9 12 l8 25 1 -27 c1 -32 16 -37 24 -8 3
11 2 20 -2 20 -4 0 -17 9 -29 20 l-22 21 0 -21z"/>
<path d="M390 2265 c-15 -18 -6 -45 13 -45 8 0 21 8 28 18 11 14 11 15 -1 5
-8 -7 -20 -13 -27 -13 -20 0 -16 28 5 32 11 2 13 6 6 11 -7 4 -17 0 -24 -8z"/>
<path d="M557 2273 c-14 -14 -6 -41 14 -46 15 -4 19 -2 15 8 -3 8 -1 17 4 20
5 3 11 -3 13 -12 4 -17 5 -17 6 0 2 25 19 21 24 -5 4 -21 4 -20 6 3 1 22 -4
28 -30 33 -39 8 -44 8 -52 -1z"/>
<path d="M186 2255 c-9 -25 -7 -30 6 -17 16 16 28 15 28 -2 0 -8 -8 -17 -17
-20 -14 -4 -14 -4 2 -3 14 2 20 10 20 27 0 29 -29 40 -39 15z"/>
<path d="M450 2246 c0 -30 -31 -50 -62 -40 -14 4 -18 2 -14 -5 10 -15 48 -14
68 2 21 16 32 53 18 62 -6 4 -10 -4 -10 -19z"/>
<path d="M2592 2250 c2 -16 10 -26 24 -28 24 -3 37 18 23 39 -6 11 -9 8 -9 -9
0 -15 -5 -22 -12 -19 -7 2 -13 9 -13 15 0 5 -4 14 -8 19 -5 4 -7 -3 -5 -17z"/>
<path d="M2795 2250 c-12 -37 20 -55 45 -25 10 12 10 18 0 30 -17 21 -37 19
-45 -5z"/>
<path d="M2657 2239 c-3 -14 -17 -31 -29 -37 -23 -10 -23 -11 -2 -11 28 -1 46
22 42 51 -3 23 -4 23 -11 -3z"/>
<path d="M248 2222 c-5 -17 -14 -22 -40 -23 -26 0 -29 -2 -13 -8 38 -15 74 8
63 41 -3 7 -7 2 -10 -10z"/>
<path d="M2779 2207 c17 -21 64 -22 81 -3 10 13 7 13 -19 3 -25 -9 -36 -9 -54
2 -20 13 -21 13 -8 -2z"/>
<path d="M2730 2125 c-19 -19 -31 -35 -26 -35 10 0 76 54 76 63 0 14 -16 6
-50 -28z"/>
<path d="M2839 2072 c-10 -15 -21 -18 -60 -14 -30 3 -49 1 -49 -6 0 -14 63
-24 96 -16 19 5 25 4 20 -5 -10 -16 19 -14 33 3 9 11 10 20 1 35 -13 26 -26
27 -41 3z"/>
<path d="M175 1927 c3 -17 -1 -36 -10 -51 -10 -15 -12 -26 -6 -30 17 -11 36
68 22 90 -11 17 -12 16 -6 -9z"/>
<path d="M2801 1923 c0 -18 -7 -36 -14 -40 -25 -16 -120 -123 -114 -129 3 -3
21 11 39 32 18 22 49 55 68 74 31 30 35 39 29 65 l-7 30 -1 -32z"/>
<path d="M100 1915 c-11 -13 -11 -19 3 -32 21 -21 49 -9 45 19 -4 28 -30 35
-48 13z"/>
<path d="M2884 1914 c3 -8 2 -12 -4 -9 -16 10 -12 -11 5 -25 8 -7 22 -10 30
-6 20 7 19 42 -1 50 -26 10 -36 7 -30 -10z"/>
<path d="M30 1781 c0 -8 -6 -11 -15 -7 -19 7 -20 -8 -1 -23 19 -16 45 14 28
31 -9 9 -12 9 -12 -1z"/>
<path d="M120 1762 c0 -10 33 -42 44 -42 3 0 -1 11 -10 25 -16 25 -34 33 -34
17z"/>
<path d="M59 1744 c-7 -9 -22 -20 -34 -24 -20 -9 -20 -9 0 -9 11 0 34 11 50
24 21 17 25 25 14 25 -9 0 -23 -7 -30 -16z"/>
<path d="M27 1682 c-29 -4 -38 -22 -9 -22 18 0 50 17 42 22 -3 2 -17 2 -33 0z"/>
<path d="M0 1595 c0 -6 10 -11 23 -11 16 1 22 -5 22 -19 0 -14 -6 -20 -22 -19
-17 0 -20 -3 -12 -12 7 -8 6 -14 -3 -17 -7 -3 -3 -6 9 -6 31 -1 58 41 44 67
-12 22 -61 36 -61 17z"/>
<path d="M2977 1592 c-10 -10 -17 -27 -17 -38 0 -19 17 -44 30 -44 13 0 7 29
-7 34 -19 8 -16 33 4 45 10 5 15 12 12 15 -3 4 -13 -2 -22 -12z"/>
<path d="M2527 1513 c-15 -14 -4 -18 63 -21 58 -2 70 0 70 13 0 12 -13 15 -63
15 -35 0 -67 -3 -70 -7z"/>
<path d="M10 1384 c35 -7 310 -9 310 -2 0 4 -73 7 -162 7 -90 -1 -156 -3 -148
-5z"/>
<path d="M2710 1381 c0 -15 23 -19 44 -8 11 5 44 7 75 5 31 -3 83 -2 116 2 45
5 23 7 -87 9 -84 0 -148 -3 -148 -8z"/>
<path d="M48 1093 c-20 -5 -22 -12 -9 -32 11 -17 41 -7 41 13 0 18 -10 24 -32
19z"/>
<path d="M2950 1074 c0 -33 33 -30 38 4 3 17 -2 22 -17 22 -16 0 -21 -6 -21
-26z"/>
<path d="M150 980 c0 -5 10 -11 23 -13 l22 -4 -22 -2 c-14 0 -23 -8 -24 -18
-1 -12 -4 -10 -9 7 -7 23 -8 22 -9 -10 l0 -35 18 22 c16 20 21 21 31 8 18 -22
47 -18 54 7 3 13 2 26 -2 29 -12 11 -82 18 -82 9z"/>
<path d="M2800 950 c0 -29 13 -40 25 -20 3 6 0 10 -7 10 -9 0 -9 3 2 10 13 9
13 10 0 11 -8 1 3 5 25 9 l40 7 -42 2 c-41 1 -43 0 -43 -29z"/>
<path d="M2420 795 c0 -3 9 -16 20 -28 15 -15 37 -23 80 -27 33 -3 64 -2 68 2
4 4 64 9 132 11 103 2 92 3 -60 5 -173 2 -186 3 -198 22 -11 18 -42 29 -42 15z"/>
<path d="M133 783 c-22 -8 -15 -44 9 -51 21 -5 21 -6 2 -13 -12 -5 -14 -8 -4
-8 8 0 21 3 29 8 11 7 9 10 -8 16 -23 7 -29 31 -9 37 7 3 8 7 3 10 -6 3 -16 3
-22 1z"/>
<path d="M2855 770 c-9 -15 14 -40 31 -33 22 8 18 43 -5 43 -11 0 -23 -5 -26
-10z"/>
<path d="M580 735 c-19 -19 -43 -36 -54 -36 -21 -1 -21 -1 -1 -6 11 -3 25 -11
31 -18 18 -24 59 -11 97 32 21 22 37 43 37 47 0 15 -24 3 -64 -34 -55 -51 -72
-52 -23 -2 33 33 39 52 17 52 -3 0 -21 -16 -40 -35z"/>
<path d="M325 680 c-18 -19 -39 -30 -56 -30 -14 0 -32 -7 -39 -15 -22 -27 51
-6 92 26 20 16 48 29 62 29 14 0 26 5 26 10 0 23 -57 9 -85 -20z"/>
<path d="M432 697 c-6 -7 -12 -33 -14 -57 -3 -43 -4 -45 -35 -45 -34 0 -83
-38 -83 -64 0 -11 10 -5 28 17 22 26 34 32 64 32 l37 0 3 53 c3 47 5 52 28 55
39 6 49 22 13 22 -17 0 -35 -6 -41 -13z"/>
<path d="M2620 700 c0 -5 16 -10 36 -10 21 0 33 4 29 10 -3 6 -19 10 -36 10
-16 0 -29 -4 -29 -10z"/>
<path d="M535 633 c0 -19 -7 -31 -23 -39 -13 -6 -20 -14 -15 -17 19 -12 53 23
53 54 0 16 -4 29 -8 29 -4 0 -8 -12 -7 -27z"/>
<path d="M484 639 c-4 -8 1 -9 16 -4 16 5 21 4 18 -6 -3 -8 -13 -13 -22 -13
-9 1 -16 -2 -16 -7 0 -14 26 -10 40 6 6 8 9 19 5 25 -8 13 -32 13 -41 -1z"/>
<path d="M2547 630 c-4 -15 -11 -21 -21 -17 -9 4 -16 2 -16 -3 0 -6 9 -10 21
-10 11 0 18 -4 15 -9 -3 -4 24 -9 61 -10 54 -1 71 -6 95 -26 28 -24 48 -25 48
-4 0 6 -4 7 -10 4 -5 -3 -25 6 -45 20 -27 21 -41 25 -65 20 -23 -5 -30 -3 -30
9 0 10 -6 13 -15 10 -9 -4 -18 2 -23 17 l-9 23 -6 -24z"/>
<path d="M980 605 c0 -26 -15 -34 -23 -12 -4 10 -7 10 -18 0 -11 -11 -10 -13
4 -13 9 0 17 -7 17 -15 0 -18 -12 -19 -28 -3 -9 9 -12 8 -12 -4 0 -19 21 -28
49 -21 17 4 21 13 21 49 0 24 -2 44 -5 44 -3 0 -5 -11 -5 -25z"/>
<path d="M630 580 c-11 -7 -5 -10 23 -10 23 0 36 4 32 10 -8 13 -35 13 -55 0z"/>
<path d="M2350 580 c-11 -7 -7 -10 17 -10 17 0 35 5 38 10 8 13 -35 13 -55 0z"/>
<path d="M375 480 c-3 -5 -3 -14 0 -20 10 -16 45 -12 52 5 8 22 -6 33 -17 15
-7 -10 -10 -11 -10 -2 0 14 -16 16 -25 2z"/>
<path d="M2595 480 c-9 -15 3 -30 25 -30 24 0 36 18 21 33 -8 8 -11 7 -11 -2
0 -10 -3 -11 -14 -2 -10 8 -16 9 -21 1z"/>
<path d="M2672 440 c-9 -15 -23 -20 -52 -20 -24 0 -40 5 -40 12 0 6 -3 8 -7 4
-11 -11 26 -36 53 -36 27 0 68 32 63 48 -3 8 -9 4 -17 -8z"/>
<path d="M778 352 c3 -9 8 -10 15 -3 13 13 37 2 47 -23 8 -18 9 -18 9 -3 1 10
-5 24 -12 32 -18 17 -66 15 -59 -3z"/>
<path d="M1452 270 c-1 -20 -7 -41 -14 -48 -6 -6 -9 -14 -6 -18 12 -11 29 37
25 69 l-4 32 -1 -35z"/>
<path d="M560 215 c-11 -13 -11 -19 2 -32 17 -16 38 -10 38 11 0 8 -6 19 -14
25 -10 9 -16 8 -26 -4z"/>
<path d="M2460 208 c0 -21 -16 -24 -23 -5 -3 7 -6 6 -6 -5 -1 -24 17 -32 36
-16 15 11 16 11 10 -5 -4 -11 -3 -16 3 -12 14 8 13 18 -5 41 -13 17 -14 17
-15 2z"/>
<path d="M865 160 c-13 -15 -33 -20 -89 -23 l-71 -3 71 -2 c64 -2 73 0 94 23
13 14 21 25 18 25 -3 0 -13 -9 -23 -20z"/>
<path d="M1996 164 c7 -3 10 -14 7 -24 -4 -14 0 -20 11 -20 9 0 16 6 16 13 0
16 -20 37 -34 36 -7 0 -6 -2 0 -5z"/>
</g>
</svg>
