<?xml version="1.0" standalone="no"?>
<!DOCTYPE svg PUBLIC "-//W3C//DTD SVG 20010904//EN"
 "http://www.w3.org/TR/2001/REC-SVG-20010904/DTD/svg10.dtd">
<svg version="1.0" xmlns="http://www.w3.org/2000/svg"
 width="662.000000pt" height="377.000000pt" viewBox="0 0 662.000000 377.000000"
 preserveAspectRatio="xMidYMid meet">
<metadata>
Created by potrace 1.10, written by Peter Selinger 2001-2011
</metadata>
<g transform="translate(0.000000,377.000000) scale(0.100000,-0.100000)"
fill="#000000" stroke="none">
<path d="M1868 3161 c-274 -88 -409 -401 -288 -667 57 -126 104 -162 565 -429
55 -32 154 -91 220 -130 221 -131 213 -128 291 -133 82 -5 129 7 192 50 54 37
96 104 112 178 22 106 -17 196 -190 430 -10 14 -99 142 -197 285 -189 277
-242 339 -319 378 -118 60 -271 74 -386 38z m317 -321 l0 -55 -47 -3 -48 -3 0
-120 0 -119 -70 0 -70 0 0 120 0 120 -50 0 -50 0 0 60 0 60 168 -2 167 -3 0
-55z"/>
</g>
</svg>
