<svg version="1.1" id="Layer_1" xmlns="http://www.w3.org/2000/svg" xmlns:xlink="http://www.w3.org/1999/xlink" x="0px" y="0px"
	 width="100%" viewBox="0 0 1024 576" enable-background="new 0 0 1024 576" xml:space="preserve">
<path fill="#000000" opacity="1.000000" stroke="none" 
	d="
M463.658112,519.572632 
	C389.817596,502.195984 335.911621,459.982910 302.259918,392.476837 
	C290.142883,368.169739 283.284302,342.200989 280.458771,315.047241 
	C275.643463,268.770935 284.032928,224.941803 305.641418,184.130035 
	C340.217560,118.826355 394.406616,77.984642 466.702454,63.365299 
	C533.228088,49.912773 595.013550,63.947414 649.848450,103.997002 
	C699.905762,140.557236 730.270996,190.161575 741.440186,251.281799 
	C750.117554,298.766205 744.177368,344.651123 723.973083,388.228851 
	C695.471069,449.703186 648.568787,491.400238 584.322937,513.116211 
	C551.148193,524.329773 517.016479,526.941162 482.282867,522.589294 
	C476.164520,521.822754 470.128448,520.718323 463.658112,519.572632 
M500.639130,161.183350 
	C491.044128,160.053528 481.297150,160.257996 471.792725,158.898071 
	C463.235321,157.673660 456.419037,160.329529 449.783661,164.739059 
	C431.994781,176.560654 418.113281,192.150085 406.779755,210.080429 
	C402.565521,216.747574 399.864777,224.084106 398.675873,231.948700 
	C397.974854,236.585861 399.105316,240.543289 402.571808,243.716171 
	C405.134857,246.062180 407.780304,246.504578 410.460907,243.752686 
	C414.653809,239.448242 419.092804,235.419922 424.125885,232.097778 
	C426.427277,230.578720 427.100464,228.785873 425.674957,226.183670 
	C423.694275,222.568039 423.610657,218.538010 423.518158,214.515121 
	C423.083862,195.629684 426.385284,191.185944 444.797607,186.864334 
	C458.822174,183.572617 473.147919,183.156235 487.472809,183.004105 
	C494.215027,182.932510 494.610016,183.165527 495.047485,189.850784 
	C496.785889,216.418427 498.880768,242.982224 499.116882,269.612976 
	C499.475708,310.075867 499.373871,350.535400 495.498413,390.891693 
	C495.035919,395.707672 493.450134,397.632538 488.855713,398.192505 
	C479.926117,399.280823 471.205078,401.474274 462.529938,403.842743 
	C459.587555,404.646057 458.536560,406.077118 459.124878,409.266785 
	C459.695892,412.362610 461.331177,413.007751 464.012726,412.796844 
	C470.316132,412.301147 476.621033,411.812347 482.931549,411.421387 
	C502.904083,410.184082 522.880432,410.284454 542.855225,411.386292 
	C552.602966,411.924011 562.348877,412.493744 571.961060,413.041351 
	C574.355957,405.907959 574.270203,405.669495 567.715942,404.227112 
	C557.968201,402.082001 548.183167,400.137939 538.228088,399.186646 
	C534.550659,398.835236 531.982422,398.030518 531.398315,393.197662 
	C528.156250,366.370911 527.689087,339.406708 526.964417,312.463013 
	C526.157898,282.477386 527.226807,252.491074 527.959717,222.516098 
	C528.183350,213.371384 528.492554,204.209656 528.915100,195.063400 
	C529.423584,184.055511 530.077942,183.771820 540.854553,185.170776 
	C558.541077,187.466751 576.021912,190.756882 593.278198,195.247757 
	C596.098694,195.981781 598.659912,196.304581 599.403870,192.500214 
	C602.723389,175.526123 610.020203,160.327530 619.989014,146.315491 
	C621.197754,144.616547 622.095947,143.072128 619.889771,141.168304 
	C617.344482,138.971878 616.106812,140.734680 614.561829,142.296249 
	C608.351074,148.573654 602.060303,154.773117 595.919189,161.117676 
	C593.598755,163.515030 590.940674,164.835266 587.673401,165.322403 
	C576.720154,166.955505 565.744995,166.609268 554.776978,165.729935 
	C537.032898,164.307327 519.299988,162.745117 500.639130,161.183350 
z"/>
</svg>